G75*
%MOIN*%
%OFA0B0*%
%FSLAX24Y24*%
%IPPOS*%
%LPD*%
%AMOC8*
5,1,8,0,0,1.08239X$1,22.5*
%
%ADD10C,0.0000*%
%ADD11R,0.0354X0.0177*%
%ADD12R,0.0866X0.0236*%
%ADD13R,0.1161X0.0661*%
%ADD14R,0.1161X0.3000*%
%ADD15R,0.0630X0.0710*%
%ADD16R,0.0710X0.0630*%
%ADD17R,0.0591X0.0787*%
%ADD18C,0.0740*%
%ADD19C,0.0180*%
%ADD20C,0.0240*%
%ADD21C,0.0356*%
%ADD22C,0.0160*%
%ADD23C,0.0500*%
%ADD24C,0.0120*%
%ADD25R,0.0356X0.0356*%
D10*
X000160Y000660D02*
X000160Y007160D01*
X001160Y008160D01*
X001160Y014660D01*
X011160Y014660D01*
X011160Y008160D01*
X012160Y007160D01*
X012160Y000660D01*
X000160Y000660D01*
D11*
X005485Y008776D03*
X005485Y009032D03*
X005485Y009288D03*
X005485Y009544D03*
X006835Y009544D03*
X006835Y009288D03*
X006835Y009032D03*
X006835Y008776D03*
D12*
X006136Y010410D03*
X006136Y010910D03*
X006136Y011410D03*
X006136Y011910D03*
X008184Y011910D03*
X008184Y011410D03*
X008184Y010910D03*
X008184Y010410D03*
D13*
X007682Y006329D03*
X004741Y006329D03*
D14*
X004741Y004258D03*
X007682Y004258D03*
D15*
X007920Y007660D03*
X006800Y007660D03*
X005470Y007660D03*
X004350Y007660D03*
X004600Y013160D03*
X005720Y013160D03*
D16*
X004410Y011720D03*
X004410Y010600D03*
X004410Y009720D03*
X004410Y008600D03*
D17*
X006569Y013160D03*
X007751Y013160D03*
D18*
X009790Y013160D02*
X010530Y013160D01*
X010530Y012160D02*
X009790Y012160D01*
X009790Y011160D02*
X010530Y011160D01*
X010530Y010160D02*
X009790Y010160D01*
X009790Y009160D02*
X010530Y009160D01*
X010790Y006160D02*
X011530Y006160D01*
X011530Y005160D02*
X010790Y005160D01*
X010790Y004160D02*
X011530Y004160D01*
X011530Y003160D02*
X010790Y003160D01*
X010790Y002160D02*
X011530Y002160D01*
X002530Y009160D02*
X001790Y009160D01*
X001790Y010160D02*
X002530Y010160D01*
X002530Y011160D02*
X001790Y011160D01*
X001790Y012160D02*
X002530Y012160D01*
X002530Y013160D02*
X001790Y013160D01*
X001530Y006160D02*
X000790Y006160D01*
X000790Y005160D02*
X001530Y005160D01*
X001530Y004160D02*
X000790Y004160D01*
X000790Y003160D02*
X001530Y003160D01*
X001530Y002160D02*
X000790Y002160D01*
D19*
X005485Y007675D02*
X005485Y008776D01*
X005485Y009544D02*
X005276Y009544D01*
X005160Y009660D01*
X006719Y009660D02*
X006835Y009544D01*
X006835Y009032D02*
X007282Y009032D01*
X007410Y009160D01*
X006835Y008776D02*
X006835Y007675D01*
D20*
X007410Y009160D02*
X007660Y009410D01*
X008160Y009410D01*
X007410Y009160D02*
X007410Y011410D01*
X007410Y011910D01*
X008184Y011910D01*
X008184Y011410D02*
X008910Y011410D01*
X009660Y012160D01*
X010160Y012160D01*
X008910Y010910D02*
X008184Y010910D01*
X008184Y010410D02*
X008910Y010410D01*
X009160Y010160D01*
X010160Y010160D01*
X007751Y013160D02*
X007001Y012410D01*
X005636Y012410D01*
X003410Y012410D01*
X003160Y012160D01*
X002160Y012160D01*
X003660Y011910D02*
X003850Y011720D01*
X004410Y011720D01*
X004845Y011285D01*
X005160Y011285D01*
X005160Y009660D01*
X004410Y009720D02*
X004410Y010600D01*
X005160Y011285D02*
X005535Y011285D01*
X005660Y011410D01*
X006136Y011910D02*
X005636Y012410D01*
X005720Y013160D02*
X006569Y013160D01*
X006910Y010910D02*
X006136Y010910D01*
X006160Y010386D02*
X006160Y009660D01*
X006719Y009660D01*
X006160Y009660D02*
X006160Y009410D01*
X004410Y008600D02*
X003850Y009160D01*
X002160Y009160D01*
X003910Y013160D02*
X004600Y013160D01*
D21*
X003910Y013160D03*
X003660Y011910D03*
X006160Y009410D03*
X006910Y010910D03*
X007410Y011410D03*
X008910Y010910D03*
X008160Y009410D03*
D22*
X006835Y007675D02*
X006800Y007660D01*
X005485Y007675D02*
X005470Y007660D01*
X006160Y010386D02*
X006136Y010410D01*
X006136Y011410D02*
X005660Y011410D01*
D23*
X004350Y007660D02*
X004350Y006720D01*
X004741Y006329D01*
X007682Y006329D02*
X007920Y006567D01*
X007920Y007660D01*
D24*
X008968Y006585D02*
X010324Y006585D01*
X010309Y006570D02*
X010251Y006490D01*
X010206Y006402D01*
X010176Y006308D01*
X010160Y006210D01*
X011110Y006210D01*
X011110Y006790D01*
X010740Y006790D01*
X010642Y006774D01*
X010548Y006744D01*
X010460Y006699D01*
X010380Y006641D01*
X010309Y006570D01*
X010239Y006467D02*
X008929Y006467D01*
X008889Y006348D02*
X010189Y006348D01*
X010163Y006230D02*
X008850Y006230D01*
X008810Y006111D02*
X011110Y006111D01*
X011110Y006110D02*
X010160Y006110D01*
X010176Y006012D01*
X010206Y005918D01*
X010251Y005830D01*
X010309Y005750D01*
X010380Y005679D01*
X010406Y005660D01*
X010380Y005641D01*
X010309Y005570D01*
X010251Y005490D01*
X010206Y005402D01*
X010176Y005308D01*
X010160Y005210D01*
X011110Y005210D01*
X011110Y006110D01*
X011110Y006210D01*
X011210Y006210D01*
X011210Y006790D01*
X011580Y006790D01*
X011678Y006774D01*
X011772Y006744D01*
X011860Y006699D01*
X011940Y006641D01*
X012000Y006581D01*
X012000Y007094D01*
X011934Y007160D01*
X009160Y007160D01*
X008660Y005660D01*
X008522Y005660D01*
X008522Y004318D01*
X007742Y004318D01*
X007742Y004198D01*
X008522Y004198D01*
X008522Y002733D01*
X008512Y002683D01*
X008493Y002635D01*
X008464Y002593D01*
X008428Y002556D01*
X008386Y002528D01*
X008338Y002508D01*
X008288Y002498D01*
X007742Y002498D01*
X007742Y004198D01*
X007622Y004198D01*
X007622Y002498D01*
X007075Y002498D01*
X007025Y002508D01*
X006978Y002528D01*
X006935Y002556D01*
X006899Y002593D01*
X006871Y002635D01*
X006851Y002683D01*
X006841Y002733D01*
X006841Y004198D01*
X007622Y004198D01*
X007622Y004318D01*
X006841Y004318D01*
X006841Y005660D01*
X006660Y005660D01*
X006660Y000820D01*
X012000Y000820D01*
X012000Y001739D01*
X011940Y001679D01*
X011860Y001621D01*
X011772Y001576D01*
X011678Y001546D01*
X011580Y001530D01*
X011210Y001530D01*
X011210Y002110D01*
X011110Y002110D01*
X011110Y001530D01*
X010740Y001530D01*
X010642Y001546D01*
X010548Y001576D01*
X010460Y001621D01*
X010380Y001679D01*
X010309Y001750D01*
X010251Y001830D01*
X010206Y001918D01*
X010176Y002012D01*
X010160Y002110D01*
X011110Y002110D01*
X011110Y002210D01*
X011110Y003110D01*
X010160Y003110D01*
X010176Y003012D01*
X010206Y002918D01*
X010251Y002830D01*
X010309Y002750D01*
X010380Y002679D01*
X010406Y002660D01*
X010380Y002641D01*
X010309Y002570D01*
X010251Y002490D01*
X010206Y002402D01*
X010176Y002308D01*
X010160Y002210D01*
X011110Y002210D01*
X011210Y002210D01*
X011210Y002530D01*
X011210Y003110D01*
X011110Y003110D01*
X011110Y003210D01*
X011110Y004110D01*
X010160Y004110D01*
X010176Y004012D01*
X010206Y003918D01*
X010251Y003830D01*
X010309Y003750D01*
X010380Y003679D01*
X010406Y003660D01*
X010380Y003641D01*
X010309Y003570D01*
X010251Y003490D01*
X010206Y003402D01*
X010176Y003308D01*
X010160Y003210D01*
X011110Y003210D01*
X011210Y003210D01*
X011210Y003530D01*
X011210Y004110D01*
X011110Y004110D01*
X011110Y004210D01*
X011110Y005110D01*
X010160Y005110D01*
X010176Y005012D01*
X010206Y004918D01*
X010251Y004830D01*
X010309Y004750D01*
X010380Y004679D01*
X010406Y004660D01*
X010380Y004641D01*
X010309Y004570D01*
X010251Y004490D01*
X010206Y004402D01*
X010176Y004308D01*
X010160Y004210D01*
X011110Y004210D01*
X011210Y004210D01*
X011210Y004530D01*
X011210Y005110D01*
X011110Y005110D01*
X011110Y005210D01*
X011210Y005210D01*
X011210Y005530D01*
X011210Y006110D01*
X011110Y006110D01*
X011110Y005993D02*
X011210Y005993D01*
X011210Y005874D02*
X011110Y005874D01*
X011110Y005756D02*
X011210Y005756D01*
X011210Y005637D02*
X011110Y005637D01*
X011110Y005519D02*
X011210Y005519D01*
X011210Y005400D02*
X011110Y005400D01*
X011110Y005282D02*
X011210Y005282D01*
X011110Y005163D02*
X008522Y005163D01*
X008522Y005045D02*
X010170Y005045D01*
X010204Y004926D02*
X008522Y004926D01*
X008522Y004808D02*
X010267Y004808D01*
X010370Y004689D02*
X008522Y004689D01*
X008522Y004571D02*
X010310Y004571D01*
X010232Y004452D02*
X008522Y004452D01*
X008522Y004334D02*
X010184Y004334D01*
X010161Y004215D02*
X007742Y004215D01*
X007742Y004097D02*
X007622Y004097D01*
X007622Y004215D02*
X006660Y004215D01*
X006660Y004097D02*
X006841Y004097D01*
X006841Y003978D02*
X006660Y003978D01*
X006660Y003860D02*
X006841Y003860D01*
X006841Y003741D02*
X006660Y003741D01*
X006660Y003623D02*
X006841Y003623D01*
X006841Y003504D02*
X006660Y003504D01*
X006660Y003386D02*
X006841Y003386D01*
X006841Y003267D02*
X006660Y003267D01*
X006660Y003149D02*
X006841Y003149D01*
X006841Y003030D02*
X006660Y003030D01*
X006660Y002912D02*
X006841Y002912D01*
X006841Y002793D02*
X006660Y002793D01*
X006660Y002675D02*
X006854Y002675D01*
X006936Y002556D02*
X006660Y002556D01*
X006660Y002438D02*
X010224Y002438D01*
X010179Y002319D02*
X006660Y002319D01*
X006660Y002201D02*
X011110Y002201D01*
X011110Y002319D02*
X011210Y002319D01*
X011210Y002438D02*
X011110Y002438D01*
X011110Y002556D02*
X011210Y002556D01*
X011210Y002675D02*
X011110Y002675D01*
X011110Y002793D02*
X011210Y002793D01*
X011210Y002912D02*
X011110Y002912D01*
X011110Y003030D02*
X011210Y003030D01*
X011110Y003149D02*
X008522Y003149D01*
X008522Y003267D02*
X010169Y003267D01*
X010201Y003386D02*
X008522Y003386D01*
X008522Y003504D02*
X010261Y003504D01*
X010362Y003623D02*
X008522Y003623D01*
X008522Y003741D02*
X010318Y003741D01*
X010236Y003860D02*
X008522Y003860D01*
X008522Y003978D02*
X010187Y003978D01*
X010162Y004097D02*
X008522Y004097D01*
X007742Y003978D02*
X007622Y003978D01*
X007622Y003860D02*
X007742Y003860D01*
X007742Y003741D02*
X007622Y003741D01*
X007622Y003623D02*
X007742Y003623D01*
X007742Y003504D02*
X007622Y003504D01*
X007622Y003386D02*
X007742Y003386D01*
X007742Y003267D02*
X007622Y003267D01*
X007622Y003149D02*
X007742Y003149D01*
X007742Y003030D02*
X007622Y003030D01*
X007622Y002912D02*
X007742Y002912D01*
X007742Y002793D02*
X007622Y002793D01*
X007622Y002675D02*
X007742Y002675D01*
X007742Y002556D02*
X007622Y002556D01*
X008427Y002556D02*
X010299Y002556D01*
X010386Y002675D02*
X008509Y002675D01*
X008522Y002793D02*
X010278Y002793D01*
X010210Y002912D02*
X008522Y002912D01*
X008522Y003030D02*
X010173Y003030D01*
X010164Y002082D02*
X006660Y002082D01*
X006660Y001964D02*
X010191Y001964D01*
X010243Y001845D02*
X006660Y001845D01*
X006660Y001727D02*
X010333Y001727D01*
X010486Y001608D02*
X006660Y001608D01*
X006660Y001490D02*
X012000Y001490D01*
X012000Y001608D02*
X011834Y001608D01*
X011987Y001727D02*
X012000Y001727D01*
X012000Y001371D02*
X006660Y001371D01*
X006660Y001253D02*
X012000Y001253D01*
X012000Y001134D02*
X006660Y001134D01*
X006660Y001016D02*
X012000Y001016D01*
X012000Y000897D02*
X006660Y000897D01*
X005660Y000897D02*
X000320Y000897D01*
X000320Y000820D02*
X000320Y001739D01*
X000380Y001679D01*
X000460Y001621D01*
X000548Y001576D01*
X000642Y001546D01*
X000740Y001530D01*
X001110Y001530D01*
X001110Y002110D01*
X001210Y002110D01*
X001210Y002210D01*
X002160Y002210D01*
X002144Y002308D01*
X002114Y002402D01*
X002069Y002490D01*
X002011Y002570D01*
X001940Y002641D01*
X001914Y002660D01*
X001940Y002679D01*
X002011Y002750D01*
X002069Y002830D01*
X002114Y002918D01*
X002144Y003012D01*
X002160Y003110D01*
X001210Y003110D01*
X001210Y003210D01*
X002160Y003210D01*
X002144Y003308D01*
X002114Y003402D01*
X002069Y003490D01*
X002011Y003570D01*
X001940Y003641D01*
X001914Y003660D01*
X001940Y003679D01*
X002011Y003750D01*
X002069Y003830D01*
X002114Y003918D01*
X002144Y004012D01*
X002160Y004110D01*
X001210Y004110D01*
X001210Y004210D01*
X002160Y004210D01*
X002144Y004308D01*
X002114Y004402D01*
X002069Y004490D01*
X002011Y004570D01*
X001940Y004641D01*
X001914Y004660D01*
X001940Y004679D01*
X002011Y004750D01*
X002069Y004830D01*
X002114Y004918D01*
X002144Y005012D01*
X002160Y005110D01*
X001210Y005110D01*
X001210Y005210D01*
X002160Y005210D01*
X002144Y005308D01*
X002114Y005402D01*
X002069Y005490D01*
X002011Y005570D01*
X001940Y005641D01*
X001914Y005660D01*
X001940Y005679D01*
X002011Y005750D01*
X002069Y005830D01*
X002114Y005918D01*
X002144Y006012D01*
X002160Y006110D01*
X001210Y006110D01*
X001210Y006210D01*
X001110Y006210D01*
X001110Y006790D01*
X000740Y006790D01*
X000642Y006774D01*
X000548Y006744D01*
X000460Y006699D01*
X000380Y006641D01*
X000320Y006581D01*
X000320Y007094D01*
X000386Y007160D01*
X003160Y007160D01*
X003660Y005660D01*
X003900Y005660D01*
X003900Y004318D01*
X004681Y004318D01*
X004681Y004198D01*
X004801Y004198D01*
X004801Y002498D01*
X005347Y002498D01*
X005397Y002508D01*
X005445Y002528D01*
X005487Y002556D01*
X005523Y002593D01*
X005552Y002635D01*
X005571Y002683D01*
X005581Y002733D01*
X005581Y004198D01*
X004801Y004198D01*
X004801Y004318D01*
X005581Y004318D01*
X005581Y005660D01*
X005660Y005660D01*
X005660Y000820D01*
X000320Y000820D01*
X000320Y001016D02*
X005660Y001016D01*
X005660Y001134D02*
X000320Y001134D01*
X000320Y001253D02*
X005660Y001253D01*
X005660Y001371D02*
X000320Y001371D01*
X000320Y001490D02*
X005660Y001490D01*
X005660Y001608D02*
X001834Y001608D01*
X001860Y001621D02*
X001772Y001576D01*
X001678Y001546D01*
X001580Y001530D01*
X001210Y001530D01*
X001210Y002110D01*
X002160Y002110D01*
X002144Y002012D01*
X002114Y001918D01*
X002069Y001830D01*
X002011Y001750D01*
X001940Y001679D01*
X001860Y001621D01*
X001987Y001727D02*
X005660Y001727D01*
X005660Y001845D02*
X002077Y001845D01*
X002129Y001964D02*
X005660Y001964D01*
X005660Y002082D02*
X002155Y002082D01*
X002141Y002319D02*
X005660Y002319D01*
X005660Y002201D02*
X001210Y002201D01*
X001210Y002210D02*
X001110Y002210D01*
X001110Y003110D01*
X001210Y003110D01*
X001210Y002530D01*
X001210Y002210D01*
X001210Y002319D02*
X001110Y002319D01*
X001110Y002438D02*
X001210Y002438D01*
X001210Y002556D02*
X001110Y002556D01*
X001110Y002675D02*
X001210Y002675D01*
X001210Y002793D02*
X001110Y002793D01*
X001110Y002912D02*
X001210Y002912D01*
X001210Y003030D02*
X001110Y003030D01*
X001210Y003149D02*
X003900Y003149D01*
X003900Y003267D02*
X002151Y003267D01*
X002119Y003386D02*
X003900Y003386D01*
X003900Y003504D02*
X002059Y003504D01*
X001958Y003623D02*
X003900Y003623D01*
X003900Y003741D02*
X002002Y003741D01*
X002084Y003860D02*
X003900Y003860D01*
X003900Y003978D02*
X002133Y003978D01*
X002158Y004097D02*
X003900Y004097D01*
X003900Y004198D02*
X003900Y002733D01*
X003910Y002683D01*
X003930Y002635D01*
X003958Y002593D01*
X003994Y002556D01*
X004037Y002528D01*
X004084Y002508D01*
X004134Y002498D01*
X004681Y002498D01*
X004681Y004198D01*
X003900Y004198D01*
X003900Y004334D02*
X002136Y004334D01*
X002159Y004215D02*
X004681Y004215D01*
X004681Y004097D02*
X004801Y004097D01*
X004801Y004215D02*
X005660Y004215D01*
X005660Y004097D02*
X005581Y004097D01*
X005581Y003978D02*
X005660Y003978D01*
X005660Y003860D02*
X005581Y003860D01*
X005581Y003741D02*
X005660Y003741D01*
X005660Y003623D02*
X005581Y003623D01*
X005581Y003504D02*
X005660Y003504D01*
X005660Y003386D02*
X005581Y003386D01*
X005581Y003267D02*
X005660Y003267D01*
X005660Y003149D02*
X005581Y003149D01*
X005581Y003030D02*
X005660Y003030D01*
X005660Y002912D02*
X005581Y002912D01*
X005581Y002793D02*
X005660Y002793D01*
X005660Y002675D02*
X005568Y002675D01*
X005486Y002556D02*
X005660Y002556D01*
X005660Y002438D02*
X002096Y002438D01*
X002021Y002556D02*
X003995Y002556D01*
X003913Y002675D02*
X001934Y002675D01*
X002042Y002793D02*
X003900Y002793D01*
X003900Y002912D02*
X002110Y002912D01*
X002147Y003030D02*
X003900Y003030D01*
X004681Y003030D02*
X004801Y003030D01*
X004801Y002912D02*
X004681Y002912D01*
X004681Y002793D02*
X004801Y002793D01*
X004801Y002675D02*
X004681Y002675D01*
X004681Y002556D02*
X004801Y002556D01*
X004801Y003149D02*
X004681Y003149D01*
X004681Y003267D02*
X004801Y003267D01*
X004801Y003386D02*
X004681Y003386D01*
X004681Y003504D02*
X004801Y003504D01*
X004801Y003623D02*
X004681Y003623D01*
X004681Y003741D02*
X004801Y003741D01*
X004801Y003860D02*
X004681Y003860D01*
X004681Y003978D02*
X004801Y003978D01*
X005581Y004334D02*
X005660Y004334D01*
X005660Y004452D02*
X005581Y004452D01*
X005581Y004571D02*
X005660Y004571D01*
X005660Y004689D02*
X005581Y004689D01*
X005581Y004808D02*
X005660Y004808D01*
X005660Y004926D02*
X005581Y004926D01*
X005581Y005045D02*
X005660Y005045D01*
X005660Y005163D02*
X005581Y005163D01*
X005581Y005282D02*
X005660Y005282D01*
X005660Y005400D02*
X005581Y005400D01*
X005581Y005519D02*
X005660Y005519D01*
X005660Y005637D02*
X005581Y005637D01*
X006660Y005637D02*
X006841Y005637D01*
X006841Y005519D02*
X006660Y005519D01*
X006660Y005400D02*
X006841Y005400D01*
X006841Y005282D02*
X006660Y005282D01*
X006660Y005163D02*
X006841Y005163D01*
X006841Y005045D02*
X006660Y005045D01*
X006660Y004926D02*
X006841Y004926D01*
X006841Y004808D02*
X006660Y004808D01*
X006660Y004689D02*
X006841Y004689D01*
X006841Y004571D02*
X006660Y004571D01*
X006660Y004452D02*
X006841Y004452D01*
X006841Y004334D02*
X006660Y004334D01*
X008522Y005282D02*
X010171Y005282D01*
X010206Y005400D02*
X008522Y005400D01*
X008522Y005519D02*
X010272Y005519D01*
X010376Y005637D02*
X008522Y005637D01*
X008692Y005756D02*
X010305Y005756D01*
X010229Y005874D02*
X008731Y005874D01*
X008771Y005993D02*
X010182Y005993D01*
X010469Y006704D02*
X009008Y006704D01*
X009047Y006822D02*
X012000Y006822D01*
X012000Y006704D02*
X011851Y006704D01*
X011996Y006585D02*
X012000Y006585D01*
X012000Y006941D02*
X009087Y006941D01*
X009126Y007059D02*
X012000Y007059D01*
X011210Y006704D02*
X011110Y006704D01*
X011110Y006585D02*
X011210Y006585D01*
X011210Y006467D02*
X011110Y006467D01*
X011110Y006348D02*
X011210Y006348D01*
X011210Y006230D02*
X011110Y006230D01*
X011110Y005045D02*
X011210Y005045D01*
X011210Y004926D02*
X011110Y004926D01*
X011110Y004808D02*
X011210Y004808D01*
X011210Y004689D02*
X011110Y004689D01*
X011110Y004571D02*
X011210Y004571D01*
X011210Y004452D02*
X011110Y004452D01*
X011110Y004334D02*
X011210Y004334D01*
X011210Y004215D02*
X011110Y004215D01*
X011110Y004097D02*
X011210Y004097D01*
X011210Y003978D02*
X011110Y003978D01*
X011110Y003860D02*
X011210Y003860D01*
X011210Y003741D02*
X011110Y003741D01*
X011110Y003623D02*
X011210Y003623D01*
X011210Y003504D02*
X011110Y003504D01*
X011110Y003386D02*
X011210Y003386D01*
X011210Y003267D02*
X011110Y003267D01*
X011110Y002082D02*
X011210Y002082D01*
X011210Y001964D02*
X011110Y001964D01*
X011110Y001845D02*
X011210Y001845D01*
X011210Y001727D02*
X011110Y001727D01*
X011110Y001608D02*
X011210Y001608D01*
X003900Y004452D02*
X002088Y004452D01*
X002010Y004571D02*
X003900Y004571D01*
X003900Y004689D02*
X001950Y004689D01*
X002053Y004808D02*
X003900Y004808D01*
X003900Y004926D02*
X002116Y004926D01*
X002150Y005045D02*
X003900Y005045D01*
X003900Y005163D02*
X001210Y005163D01*
X001210Y005210D02*
X001110Y005210D01*
X001110Y006110D01*
X001210Y006110D01*
X001210Y005530D01*
X001210Y005210D01*
X001210Y005282D02*
X001110Y005282D01*
X001110Y005400D02*
X001210Y005400D01*
X001210Y005519D02*
X001110Y005519D01*
X001110Y005637D02*
X001210Y005637D01*
X001210Y005756D02*
X001110Y005756D01*
X001110Y005874D02*
X001210Y005874D01*
X001210Y005993D02*
X001110Y005993D01*
X001210Y006111D02*
X003510Y006111D01*
X003549Y005993D02*
X002138Y005993D01*
X002091Y005874D02*
X003589Y005874D01*
X003628Y005756D02*
X002015Y005756D01*
X001944Y005637D02*
X003900Y005637D01*
X003900Y005519D02*
X002048Y005519D01*
X002114Y005400D02*
X003900Y005400D01*
X003900Y005282D02*
X002149Y005282D01*
X002160Y006210D02*
X002144Y006308D01*
X002114Y006402D01*
X002069Y006490D01*
X002011Y006570D01*
X001940Y006641D01*
X001860Y006699D01*
X001772Y006744D01*
X001678Y006774D01*
X001580Y006790D01*
X001210Y006790D01*
X001210Y006210D01*
X002160Y006210D01*
X002157Y006230D02*
X003470Y006230D01*
X003431Y006348D02*
X002131Y006348D01*
X002081Y006467D02*
X003391Y006467D01*
X003352Y006585D02*
X001996Y006585D01*
X001851Y006704D02*
X003312Y006704D01*
X003273Y006822D02*
X000320Y006822D01*
X000320Y006704D02*
X000469Y006704D01*
X000324Y006585D02*
X000320Y006585D01*
X000320Y006941D02*
X003233Y006941D01*
X003194Y007059D02*
X000320Y007059D01*
X001110Y006704D02*
X001210Y006704D01*
X001210Y006585D02*
X001110Y006585D01*
X001110Y006467D02*
X001210Y006467D01*
X001210Y006348D02*
X001110Y006348D01*
X001110Y006230D02*
X001210Y006230D01*
X001210Y005110D02*
X001210Y004530D01*
X001210Y004210D01*
X001110Y004210D01*
X001110Y005110D01*
X001210Y005110D01*
X001210Y005045D02*
X001110Y005045D01*
X001110Y004926D02*
X001210Y004926D01*
X001210Y004808D02*
X001110Y004808D01*
X001110Y004689D02*
X001210Y004689D01*
X001210Y004571D02*
X001110Y004571D01*
X001110Y004452D02*
X001210Y004452D01*
X001210Y004334D02*
X001110Y004334D01*
X001110Y004215D02*
X001210Y004215D01*
X001210Y004110D02*
X001210Y003530D01*
X001210Y003210D01*
X001110Y003210D01*
X001110Y004110D01*
X001210Y004110D01*
X001210Y004097D02*
X001110Y004097D01*
X001110Y003978D02*
X001210Y003978D01*
X001210Y003860D02*
X001110Y003860D01*
X001110Y003741D02*
X001210Y003741D01*
X001210Y003623D02*
X001110Y003623D01*
X001110Y003504D02*
X001210Y003504D01*
X001210Y003386D02*
X001110Y003386D01*
X001110Y003267D02*
X001210Y003267D01*
X001210Y002082D02*
X001110Y002082D01*
X001110Y001964D02*
X001210Y001964D01*
X001210Y001845D02*
X001110Y001845D01*
X001110Y001727D02*
X001210Y001727D01*
X001210Y001608D02*
X001110Y001608D01*
X000486Y001608D02*
X000320Y001608D01*
X000320Y001727D02*
X000333Y001727D01*
D25*
X001910Y001410D03*
X003660Y002160D03*
X003660Y003160D03*
X003660Y004160D03*
X003660Y005160D03*
X002910Y006910D03*
X005160Y001660D03*
X007160Y001660D03*
X008660Y002160D03*
X008660Y003160D03*
X008660Y004160D03*
X008660Y005160D03*
X009410Y006910D03*
X010660Y001410D03*
M02*
