G75*
%MOIN*%
%OFA0B0*%
%FSLAX24Y24*%
%IPPOS*%
%LPD*%
%AMOC8*
5,1,8,0,0,1.08239X$1,22.5*
%
%ADD10C,0.0000*%
%ADD11C,0.0740*%
%ADD12C,0.0258*%
%ADD13C,0.0320*%
%ADD14C,0.0240*%
%ADD15C,0.0160*%
%ADD16C,0.0120*%
%ADD17R,0.0356X0.0356*%
D10*
X000180Y000317D02*
X000180Y014317D01*
X009180Y014317D01*
X009180Y000317D01*
X000180Y000317D01*
D11*
X000810Y001817D02*
X001550Y001817D01*
X001550Y002817D02*
X000810Y002817D01*
X000810Y003817D02*
X001550Y003817D01*
X001550Y004817D02*
X000810Y004817D01*
X000810Y005817D02*
X001550Y005817D01*
X001550Y008817D02*
X000810Y008817D01*
X000810Y009817D02*
X001550Y009817D01*
X001550Y010817D02*
X000810Y010817D01*
X000810Y011817D02*
X001550Y011817D01*
X001550Y012817D02*
X000810Y012817D01*
X007810Y012817D02*
X008550Y012817D01*
X008550Y011817D02*
X007810Y011817D01*
X007810Y010817D02*
X008550Y010817D01*
X008550Y009817D02*
X007810Y009817D01*
X007810Y008817D02*
X008550Y008817D01*
X008550Y005817D02*
X007810Y005817D01*
X007810Y004817D02*
X008550Y004817D01*
X008550Y003817D02*
X007810Y003817D01*
X007810Y002817D02*
X008550Y002817D01*
X008550Y001817D02*
X007810Y001817D01*
D12*
X006680Y009067D03*
X007080Y010617D03*
X005930Y011067D03*
X005430Y010567D03*
X004680Y009717D03*
X002430Y012817D03*
X002180Y011567D03*
D13*
X002180Y012317D01*
X001680Y012817D01*
X001180Y012817D01*
X001930Y011067D02*
X005930Y011067D01*
X005430Y010567D02*
X002680Y010567D01*
X001930Y009817D01*
X001180Y009817D01*
X001180Y010817D02*
X001680Y010817D01*
X001930Y011067D01*
D14*
X006680Y009067D02*
X006880Y009267D01*
X006880Y009767D01*
X007930Y010817D01*
X008180Y010817D01*
X007080Y010617D02*
X007080Y012217D01*
X007680Y012817D01*
X008180Y012817D01*
D15*
X008663Y013387D02*
X007697Y013387D01*
X007487Y013300D01*
X007327Y013140D01*
X007240Y012930D01*
X007240Y012829D01*
X006809Y012398D01*
X006760Y012280D01*
X006760Y010704D01*
X006751Y010682D01*
X006751Y010551D01*
X006801Y010430D01*
X006894Y010338D01*
X006968Y010307D01*
X006699Y010038D01*
X006699Y010038D01*
X006609Y009948D01*
X006560Y009830D01*
X006560Y009399D01*
X006515Y009354D01*
X006494Y009345D01*
X006401Y009253D01*
X006351Y009132D01*
X006351Y009001D01*
X006401Y008880D01*
X006494Y008788D01*
X006615Y008738D01*
X006745Y008738D01*
X006866Y008788D01*
X006959Y008880D01*
X006968Y008902D01*
X007151Y009085D01*
X007200Y009203D01*
X007200Y009634D01*
X007249Y009683D01*
X007327Y009494D01*
X007457Y009363D01*
X007448Y009358D01*
X007381Y009306D01*
X007320Y009246D01*
X007268Y009179D01*
X007226Y009105D01*
X007193Y009026D01*
X007171Y008944D01*
X007160Y008859D01*
X007160Y008847D01*
X008150Y008847D01*
X008150Y008787D01*
X007160Y008787D01*
X007160Y008774D01*
X007171Y008690D01*
X007193Y008607D01*
X007226Y008529D01*
X007268Y008455D01*
X007320Y008387D01*
X007381Y008327D01*
X007448Y008275D01*
X007522Y008232D01*
X007601Y008200D01*
X007683Y008178D01*
X007767Y008167D01*
X008150Y008167D01*
X008150Y008787D01*
X008210Y008787D01*
X008210Y008167D01*
X008593Y008167D01*
X008677Y008178D01*
X008759Y008200D01*
X008838Y008232D01*
X008912Y008275D01*
X008979Y008327D01*
X008980Y008327D01*
X008980Y007817D01*
X000380Y007817D01*
X000380Y008327D01*
X000381Y008327D01*
X000448Y008275D01*
X000522Y008232D01*
X000601Y008200D01*
X000683Y008178D01*
X000767Y008167D01*
X001150Y008167D01*
X001150Y008787D01*
X001210Y008787D01*
X001210Y008847D01*
X002200Y008847D01*
X002200Y008859D01*
X002189Y008944D01*
X002167Y009026D01*
X002134Y009105D01*
X002092Y009179D01*
X002040Y009246D01*
X001979Y009306D01*
X001912Y009358D01*
X001903Y009363D01*
X001996Y009457D01*
X002002Y009457D01*
X002134Y009511D01*
X002235Y009613D01*
X002829Y010207D01*
X005502Y010207D01*
X005634Y010261D01*
X005735Y010363D01*
X005790Y010495D01*
X005790Y010638D01*
X005762Y010707D01*
X006002Y010707D01*
X006134Y010761D01*
X006235Y010863D01*
X006290Y010995D01*
X006290Y011138D01*
X006235Y011271D01*
X006134Y011372D01*
X006002Y011427D01*
X002512Y011427D01*
X002540Y011495D01*
X002540Y012388D01*
X002485Y012521D01*
X006932Y012521D01*
X007090Y012680D02*
X002326Y012680D01*
X002168Y012838D02*
X007240Y012838D01*
X007268Y012997D02*
X002092Y012997D01*
X002120Y012930D02*
X002033Y013140D01*
X001873Y013300D01*
X001663Y013387D01*
X000697Y013387D01*
X000487Y013300D01*
X000380Y013193D01*
X000380Y014117D01*
X008980Y014117D01*
X008980Y013193D01*
X008873Y013300D01*
X008663Y013387D01*
X008840Y013314D02*
X008980Y013314D01*
X008980Y013472D02*
X000380Y013472D01*
X000380Y013314D02*
X000520Y013314D01*
X000380Y013631D02*
X008980Y013631D01*
X008980Y013789D02*
X000380Y013789D01*
X000380Y013948D02*
X008980Y013948D01*
X008980Y014106D02*
X000380Y014106D01*
X001840Y013314D02*
X007520Y013314D01*
X007342Y013155D02*
X002018Y013155D01*
X002120Y012930D02*
X002120Y012886D01*
X002485Y012521D01*
X002540Y012363D02*
X006794Y012363D01*
X006760Y012204D02*
X002540Y012204D01*
X002540Y012046D02*
X006760Y012046D01*
X006760Y011887D02*
X002540Y011887D01*
X002540Y011729D02*
X006760Y011729D01*
X006760Y011570D02*
X002540Y011570D01*
X002766Y010144D02*
X006804Y010144D01*
X006646Y009985D02*
X002608Y009985D01*
X002449Y009827D02*
X006560Y009827D01*
X006560Y009668D02*
X002291Y009668D01*
X002130Y009510D02*
X006560Y009510D01*
X006507Y009351D02*
X001921Y009351D01*
X002081Y009193D02*
X006376Y009193D01*
X006351Y009034D02*
X002163Y009034D01*
X002198Y008876D02*
X006406Y008876D01*
X006954Y008876D02*
X007162Y008876D01*
X007167Y008717D02*
X002193Y008717D01*
X002189Y008690D02*
X002200Y008774D01*
X002200Y008787D01*
X001210Y008787D01*
X001210Y008167D01*
X001593Y008167D01*
X001677Y008178D01*
X001759Y008200D01*
X001838Y008232D01*
X001912Y008275D01*
X001979Y008327D01*
X002040Y008387D01*
X002092Y008455D01*
X002134Y008529D01*
X002167Y008607D01*
X002189Y008690D01*
X002147Y008559D02*
X007213Y008559D01*
X007310Y008400D02*
X002050Y008400D01*
X001854Y008242D02*
X007506Y008242D01*
X007197Y009034D02*
X007100Y009034D01*
X007196Y009193D02*
X007279Y009193D01*
X007200Y009351D02*
X007439Y009351D01*
X007320Y009510D02*
X007200Y009510D01*
X007234Y009668D02*
X007255Y009668D01*
X006963Y010302D02*
X005675Y010302D01*
X005776Y010461D02*
X006789Y010461D01*
X006751Y010619D02*
X005790Y010619D01*
X006150Y010778D02*
X006760Y010778D01*
X006760Y010936D02*
X006266Y010936D01*
X006290Y011095D02*
X006760Y011095D01*
X006760Y011253D02*
X006242Y011253D01*
X006038Y011412D02*
X006760Y011412D01*
X008150Y008717D02*
X008210Y008717D01*
X008210Y008559D02*
X008150Y008559D01*
X008150Y008400D02*
X008210Y008400D01*
X008210Y008242D02*
X008150Y008242D01*
X008854Y008242D02*
X008980Y008242D01*
X008980Y008083D02*
X000380Y008083D01*
X000380Y007925D02*
X008980Y007925D01*
X001210Y008242D02*
X001150Y008242D01*
X001150Y008400D02*
X001210Y008400D01*
X001210Y008559D02*
X001150Y008559D01*
X001150Y008717D02*
X001210Y008717D01*
X000506Y008242D02*
X000380Y008242D01*
D16*
X000340Y006817D02*
X002180Y006817D01*
X002180Y005317D01*
X004180Y005317D01*
X004180Y000477D01*
X000340Y000477D01*
X000340Y006817D01*
X000340Y006716D02*
X002180Y006716D01*
X002180Y006597D02*
X000340Y006597D01*
X000340Y006479D02*
X002180Y006479D01*
X002180Y006360D02*
X000340Y006360D01*
X000340Y006242D02*
X002180Y006242D01*
X002180Y006123D02*
X000340Y006123D01*
X000340Y006005D02*
X002180Y006005D01*
X002180Y005886D02*
X000340Y005886D01*
X000340Y005768D02*
X002180Y005768D01*
X002180Y005649D02*
X000340Y005649D01*
X000340Y005531D02*
X002180Y005531D01*
X002180Y005412D02*
X000340Y005412D01*
X000340Y005294D02*
X004180Y005294D01*
X004180Y005175D02*
X000340Y005175D01*
X000340Y005057D02*
X004180Y005057D01*
X004180Y004938D02*
X000340Y004938D01*
X000340Y004820D02*
X004180Y004820D01*
X004180Y004701D02*
X000340Y004701D01*
X000340Y004583D02*
X004180Y004583D01*
X004180Y004464D02*
X000340Y004464D01*
X000340Y004346D02*
X004180Y004346D01*
X004180Y004227D02*
X000340Y004227D01*
X000340Y004109D02*
X004180Y004109D01*
X004180Y003990D02*
X000340Y003990D01*
X000340Y003872D02*
X004180Y003872D01*
X004180Y003753D02*
X000340Y003753D01*
X000340Y003635D02*
X004180Y003635D01*
X004180Y003516D02*
X000340Y003516D01*
X000340Y003398D02*
X004180Y003398D01*
X004180Y003279D02*
X000340Y003279D01*
X000340Y003161D02*
X004180Y003161D01*
X004180Y003042D02*
X000340Y003042D01*
X000340Y002924D02*
X004180Y002924D01*
X004180Y002805D02*
X000340Y002805D01*
X000340Y002687D02*
X004180Y002687D01*
X004180Y002568D02*
X000340Y002568D01*
X000340Y002450D02*
X004180Y002450D01*
X004180Y002331D02*
X000340Y002331D01*
X000340Y002213D02*
X004180Y002213D01*
X004180Y002094D02*
X000340Y002094D01*
X000340Y001976D02*
X004180Y001976D01*
X004180Y001857D02*
X000340Y001857D01*
X000340Y001739D02*
X004180Y001739D01*
X004180Y001620D02*
X000340Y001620D01*
X000340Y001502D02*
X004180Y001502D01*
X004180Y001383D02*
X000340Y001383D01*
X000340Y001265D02*
X004180Y001265D01*
X004180Y001146D02*
X000340Y001146D01*
X000340Y001028D02*
X004180Y001028D01*
X004180Y000909D02*
X000340Y000909D01*
X000340Y000791D02*
X004180Y000791D01*
X004180Y000672D02*
X000340Y000672D01*
X000340Y000554D02*
X004180Y000554D01*
X005180Y000554D02*
X009020Y000554D01*
X009020Y000477D02*
X005180Y000477D01*
X005180Y005317D01*
X007180Y005317D01*
X007180Y006817D01*
X009020Y006817D01*
X009020Y000477D01*
X009020Y000672D02*
X005180Y000672D01*
X005180Y000791D02*
X009020Y000791D01*
X009020Y000909D02*
X005180Y000909D01*
X005180Y001028D02*
X009020Y001028D01*
X009020Y001146D02*
X005180Y001146D01*
X005180Y001265D02*
X009020Y001265D01*
X009020Y001383D02*
X005180Y001383D01*
X005180Y001502D02*
X009020Y001502D01*
X009020Y001620D02*
X005180Y001620D01*
X005180Y001739D02*
X009020Y001739D01*
X009020Y001857D02*
X005180Y001857D01*
X005180Y001976D02*
X009020Y001976D01*
X009020Y002094D02*
X005180Y002094D01*
X005180Y002213D02*
X009020Y002213D01*
X009020Y002331D02*
X005180Y002331D01*
X005180Y002450D02*
X009020Y002450D01*
X009020Y002568D02*
X005180Y002568D01*
X005180Y002687D02*
X009020Y002687D01*
X009020Y002805D02*
X005180Y002805D01*
X005180Y002924D02*
X009020Y002924D01*
X009020Y003042D02*
X005180Y003042D01*
X005180Y003161D02*
X009020Y003161D01*
X009020Y003279D02*
X005180Y003279D01*
X005180Y003398D02*
X009020Y003398D01*
X009020Y003516D02*
X005180Y003516D01*
X005180Y003635D02*
X009020Y003635D01*
X009020Y003753D02*
X005180Y003753D01*
X005180Y003872D02*
X009020Y003872D01*
X009020Y003990D02*
X005180Y003990D01*
X005180Y004109D02*
X009020Y004109D01*
X009020Y004227D02*
X005180Y004227D01*
X005180Y004346D02*
X009020Y004346D01*
X009020Y004464D02*
X005180Y004464D01*
X005180Y004583D02*
X009020Y004583D01*
X009020Y004701D02*
X005180Y004701D01*
X005180Y004820D02*
X009020Y004820D01*
X009020Y004938D02*
X005180Y004938D01*
X005180Y005057D02*
X009020Y005057D01*
X009020Y005175D02*
X005180Y005175D01*
X005180Y005294D02*
X009020Y005294D01*
X009020Y005412D02*
X007180Y005412D01*
X007180Y005531D02*
X009020Y005531D01*
X009020Y005649D02*
X007180Y005649D01*
X007180Y005768D02*
X009020Y005768D01*
X009020Y005886D02*
X007180Y005886D01*
X007180Y006005D02*
X009020Y006005D01*
X009020Y006123D02*
X007180Y006123D01*
X007180Y006242D02*
X009020Y006242D01*
X009020Y006360D02*
X007180Y006360D01*
X007180Y006479D02*
X009020Y006479D01*
X009020Y006597D02*
X007180Y006597D01*
X007180Y006716D02*
X009020Y006716D01*
D17*
X007430Y006567D03*
X007180Y004817D03*
X007180Y003817D03*
X007180Y002817D03*
X007180Y001817D03*
X007180Y000817D03*
X008180Y000817D03*
X002180Y000817D03*
X002180Y001817D03*
X002180Y002817D03*
X002180Y003817D03*
X002180Y004817D03*
X001930Y006567D03*
X001180Y000817D03*
M02*
