G75*
%MOIN*%
%OFA0B0*%
%FSLAX24Y24*%
%IPPOS*%
%LPD*%
%AMOC8*
5,1,8,0,0,1.08239X$1,22.5*
%
%ADD10C,0.0000*%
%ADD11C,0.0110*%
%ADD12C,0.0090*%
%ADD13C,0.0060*%
D10*
X000180Y000317D02*
X000180Y014317D01*
X009180Y014317D01*
X009180Y000317D01*
X000180Y000317D01*
D11*
X003885Y001069D02*
X004082Y001265D01*
X004476Y001265D01*
X004279Y001516D02*
X004476Y001713D01*
X003885Y001713D01*
X003885Y001516D02*
X003885Y001910D01*
X003885Y002161D02*
X003885Y002259D01*
X003983Y002259D01*
X003983Y002161D01*
X003885Y002161D01*
X003885Y002483D02*
X003885Y002877D01*
X003885Y002680D02*
X004476Y002680D01*
X004279Y002483D01*
X004885Y002554D02*
X005082Y002358D01*
X005082Y002456D02*
X005082Y002161D01*
X004983Y001910D02*
X005476Y001910D01*
X005476Y002161D02*
X005476Y002456D01*
X005377Y002554D01*
X005180Y002554D01*
X005082Y002456D01*
X004885Y002161D02*
X005476Y002161D01*
X005476Y001516D02*
X004983Y001516D01*
X004885Y001615D01*
X004885Y001811D01*
X004983Y001910D01*
X004983Y001265D02*
X004885Y001167D01*
X004885Y000970D01*
X004983Y000872D01*
X005377Y000872D01*
X005476Y000970D01*
X005476Y001167D01*
X005377Y001265D01*
X004476Y000872D02*
X004082Y000872D01*
X003885Y001069D01*
X004885Y002805D02*
X005476Y002805D01*
X005476Y003101D01*
X005377Y003199D01*
X005180Y003199D01*
X005082Y003101D01*
X005082Y002805D01*
X005082Y003002D02*
X004885Y003199D01*
X004885Y003450D02*
X004885Y003844D01*
X004885Y004094D02*
X005476Y004094D01*
X004885Y004488D01*
X005476Y004488D01*
X005476Y004739D02*
X005476Y005133D01*
X005476Y004936D02*
X004885Y004936D01*
X004983Y006028D02*
X004885Y006126D01*
X004885Y006323D01*
X004983Y006422D01*
X005082Y006422D01*
X005180Y006323D01*
X005180Y006126D01*
X005279Y006028D01*
X005377Y006028D01*
X005476Y006126D01*
X005476Y006323D01*
X005377Y006422D01*
X005476Y006673D02*
X004885Y006673D01*
X004885Y007066D01*
X004885Y007317D02*
X005476Y007317D01*
X004885Y007711D01*
X005476Y007711D01*
X005377Y007962D02*
X005279Y007962D01*
X005180Y008060D01*
X005180Y008257D01*
X005082Y008355D01*
X004983Y008355D01*
X004885Y008257D01*
X004885Y008060D01*
X004983Y007962D01*
X005377Y007962D02*
X005476Y008060D01*
X005476Y008257D01*
X005377Y008355D01*
X005476Y008606D02*
X005476Y008803D01*
X005476Y008705D02*
X004885Y008705D01*
X004885Y008803D02*
X004885Y008606D01*
X004885Y009036D02*
X005476Y009036D01*
X004885Y009430D01*
X005476Y009430D01*
X005377Y009681D02*
X004983Y009681D01*
X004885Y009779D01*
X004885Y009976D01*
X004983Y010074D01*
X005180Y010074D01*
X005180Y009877D01*
X005377Y009681D02*
X005476Y009779D01*
X005476Y009976D01*
X005377Y010074D01*
X005476Y010970D02*
X004885Y010970D01*
X004885Y011265D01*
X004983Y011363D01*
X005082Y011363D01*
X005180Y011265D01*
X005180Y010970D01*
X005180Y011265D02*
X005279Y011363D01*
X005377Y011363D01*
X005476Y011265D01*
X005476Y010970D01*
X005377Y011614D02*
X004983Y011614D01*
X004885Y011713D01*
X004885Y011909D01*
X004983Y012008D01*
X005377Y012008D01*
X005476Y011909D01*
X005476Y011713D01*
X005377Y011614D01*
X005279Y012259D02*
X005476Y012456D01*
X005279Y012652D01*
X004885Y012652D01*
X004885Y012903D02*
X005476Y012903D01*
X005476Y013199D01*
X005377Y013297D01*
X005180Y013297D01*
X005082Y013199D01*
X005082Y012903D01*
X005082Y013100D02*
X004885Y013297D01*
X004885Y013548D02*
X004885Y013843D01*
X004983Y013941D01*
X005377Y013941D01*
X005476Y013843D01*
X005476Y013548D01*
X004885Y013548D01*
X005180Y012652D02*
X005180Y012259D01*
X005279Y012259D02*
X004885Y012259D01*
X005476Y007066D02*
X005476Y006673D01*
X005180Y006673D02*
X005180Y006869D01*
X005476Y003844D02*
X005476Y003450D01*
X004885Y003450D01*
X005180Y003450D02*
X005180Y003647D01*
D12*
X003435Y002604D02*
X002925Y002604D01*
X002925Y002519D02*
X002925Y002689D01*
X003010Y002887D02*
X002925Y002972D01*
X002925Y003228D01*
X003265Y003228D01*
X003265Y003440D02*
X003265Y003695D01*
X003180Y003780D01*
X003010Y003780D01*
X002925Y003695D01*
X002925Y003440D01*
X002755Y003440D02*
X003265Y003440D01*
X003265Y002887D02*
X003010Y002887D01*
X003435Y002604D02*
X003435Y002519D01*
X003265Y002307D02*
X002925Y002307D01*
X002925Y002052D01*
X003010Y001967D01*
X003265Y001967D01*
X003180Y001754D02*
X002925Y001754D01*
X002925Y001499D01*
X003010Y001414D01*
X003095Y001499D01*
X003095Y001754D01*
X003180Y001754D02*
X003265Y001669D01*
X003265Y001499D01*
X003180Y001202D02*
X003010Y001202D01*
X002925Y001117D01*
X002925Y000947D01*
X003010Y000862D01*
X003350Y000862D01*
X003435Y000947D01*
X003435Y001117D01*
X003350Y001202D01*
X003180Y001202D02*
X003180Y001032D01*
X003180Y003992D02*
X003010Y003992D01*
X002925Y004077D01*
X002925Y004248D01*
X003095Y004333D02*
X003095Y003992D01*
X003180Y003992D02*
X003265Y004077D01*
X003265Y004248D01*
X003180Y004333D01*
X003095Y004333D01*
X003010Y004545D02*
X002925Y004630D01*
X002925Y004885D01*
X003180Y004885D01*
X003265Y004800D01*
X003265Y004630D01*
X003095Y004630D02*
X003095Y004885D01*
X003010Y005097D02*
X002925Y005182D01*
X002925Y005438D01*
X003265Y005438D01*
X003265Y005097D02*
X003010Y005097D01*
X003095Y004630D02*
X003010Y004545D01*
X002925Y006202D02*
X002925Y006457D01*
X003010Y006543D01*
X003095Y006543D01*
X003180Y006457D01*
X003180Y006202D01*
X002925Y006202D02*
X003435Y006202D01*
X003435Y006457D01*
X003350Y006543D01*
X003265Y006543D01*
X003180Y006457D01*
X003095Y006755D02*
X003265Y006925D01*
X003265Y007010D01*
X003265Y007215D02*
X003265Y007300D01*
X002925Y007300D01*
X002925Y007215D02*
X002925Y007385D01*
X003010Y007583D02*
X002925Y007668D01*
X002925Y007924D01*
X003010Y008136D02*
X002925Y008221D01*
X002925Y008391D01*
X003010Y008136D02*
X003180Y008136D01*
X003265Y008221D01*
X003265Y008391D01*
X003180Y008476D01*
X003095Y008476D01*
X003095Y008136D01*
X003265Y007924D02*
X003265Y007668D01*
X003180Y007583D01*
X003010Y007583D01*
X003435Y007300D02*
X003521Y007300D01*
X003265Y006755D02*
X002925Y006755D01*
D13*
X003490Y011817D02*
X003690Y011817D01*
X003730Y012047D01*
X003701Y012075D02*
X003459Y012075D01*
X003480Y012067D02*
X003530Y011867D01*
X003680Y011867D01*
X003680Y012067D01*
X003930Y012167D01*
X004130Y012017D01*
X004130Y012017D01*
X004230Y012167D01*
X004080Y012317D01*
X004180Y012517D01*
X004380Y012567D01*
X004380Y012717D01*
X004180Y012767D01*
X004080Y012967D01*
X004230Y013167D01*
X004130Y013267D01*
X003930Y013167D01*
X003680Y013267D01*
X003680Y013467D01*
X003530Y013467D01*
X003480Y013217D01*
X003230Y013167D01*
X003080Y013267D01*
X002980Y013167D01*
X003080Y013017D01*
X003030Y012917D01*
X003330Y012817D01*
X003530Y012967D01*
X003780Y012917D01*
X003880Y012717D01*
X003880Y012517D01*
X003730Y012367D01*
X003430Y012367D01*
X003330Y012517D01*
X003080Y012367D01*
X003080Y012317D01*
X002980Y012167D01*
X003080Y012067D01*
X003230Y012167D01*
X003480Y012067D01*
X003450Y012037D02*
X003490Y011817D01*
X003522Y011900D02*
X003680Y011900D01*
X003680Y011958D02*
X003507Y011958D01*
X003492Y012017D02*
X003680Y012017D01*
X003848Y012134D02*
X003312Y012134D01*
X003250Y012117D02*
X003070Y011997D01*
X002930Y012137D01*
X003050Y012317D01*
X003010Y012387D01*
X003350Y012537D01*
X003351Y012485D02*
X003277Y012485D01*
X003179Y012426D02*
X003390Y012426D01*
X003429Y012368D02*
X003082Y012368D01*
X003075Y012309D02*
X004087Y012309D01*
X004120Y012327D02*
X004250Y012137D01*
X004110Y011997D01*
X003920Y012127D01*
X003974Y012134D02*
X004208Y012134D01*
X004204Y012192D02*
X002997Y012192D01*
X003013Y012134D02*
X003181Y012134D01*
X003093Y012075D02*
X003071Y012075D01*
X003036Y012251D02*
X004146Y012251D01*
X004106Y012368D02*
X003731Y012368D01*
X003790Y012426D02*
X004135Y012426D01*
X004164Y012485D02*
X003848Y012485D01*
X003880Y012543D02*
X004286Y012543D01*
X004190Y012507D02*
X004430Y012557D01*
X004430Y012747D01*
X004190Y012797D01*
X004175Y012777D02*
X003850Y012777D01*
X003879Y012719D02*
X004372Y012719D01*
X004380Y012660D02*
X003880Y012660D01*
X003880Y012602D02*
X004380Y012602D01*
X004145Y012836D02*
X003820Y012836D01*
X003791Y012894D02*
X004116Y012894D01*
X004087Y012953D02*
X003600Y012953D01*
X003511Y012953D02*
X003048Y012953D01*
X003050Y012997D02*
X003010Y012917D01*
X003350Y012777D01*
X003355Y012836D02*
X003273Y012836D01*
X003433Y012894D02*
X003097Y012894D01*
X003050Y012997D02*
X002930Y013177D01*
X003070Y013317D01*
X003250Y013187D01*
X003200Y013187D02*
X003000Y013187D01*
X003006Y013128D02*
X004201Y013128D01*
X004210Y013187D02*
X003970Y013187D01*
X003920Y013177D02*
X004110Y013317D01*
X004250Y013177D01*
X004120Y012977D01*
X004113Y013011D02*
X003077Y013011D01*
X003045Y013070D02*
X004157Y013070D01*
X004151Y013245D02*
X004087Y013245D01*
X003880Y013187D02*
X003330Y013187D01*
X003450Y013267D02*
X003490Y013487D01*
X003690Y013487D01*
X003730Y013267D01*
X003734Y013245D02*
X003486Y013245D01*
X003497Y013304D02*
X003680Y013304D01*
X003680Y013362D02*
X003509Y013362D01*
X003521Y013421D02*
X003680Y013421D01*
X003730Y013269D02*
X003770Y013257D01*
X003809Y013242D01*
X003847Y013224D01*
X003883Y013204D01*
X003918Y013182D01*
X003350Y012777D02*
X003366Y012805D01*
X003385Y012832D01*
X003407Y012855D01*
X003432Y012876D01*
X003460Y012894D01*
X003489Y012909D01*
X003520Y012919D01*
X003551Y012927D01*
X003584Y012930D01*
X003616Y012929D01*
X003649Y012925D01*
X003680Y012916D01*
X003710Y012904D01*
X003739Y012889D01*
X003766Y012870D01*
X003790Y012848D01*
X003811Y012824D01*
X003830Y012797D01*
X003845Y012768D01*
X003856Y012737D01*
X003864Y012706D01*
X003868Y012673D01*
X003868Y012641D01*
X003864Y012608D01*
X003856Y012577D01*
X003845Y012546D01*
X003830Y012517D01*
X003811Y012490D01*
X003790Y012466D01*
X003766Y012444D01*
X003739Y012425D01*
X003710Y012410D01*
X003680Y012398D01*
X003649Y012389D01*
X003616Y012385D01*
X003584Y012384D01*
X003551Y012387D01*
X003520Y012395D01*
X003489Y012405D01*
X003460Y012420D01*
X003432Y012438D01*
X003407Y012459D01*
X003385Y012482D01*
X003366Y012509D01*
X003350Y012537D01*
X004116Y012329D02*
X004139Y012371D01*
X004158Y012414D01*
X004175Y012459D01*
X004187Y012505D01*
X004169Y012075D02*
X004052Y012075D01*
X003434Y012039D02*
X003387Y012054D01*
X003341Y012072D01*
X003297Y012094D01*
X003255Y012119D01*
X003732Y012045D02*
X003772Y012056D01*
X003811Y012070D01*
X003848Y012086D01*
X003885Y012105D01*
X003920Y012126D01*
X003451Y013266D02*
X003409Y013256D01*
X003368Y013243D01*
X003328Y013227D01*
X003289Y013208D01*
X003252Y013186D01*
X003112Y013245D02*
X003059Y013245D01*
X004120Y012976D02*
X004143Y012933D01*
X004163Y012889D01*
X004179Y012843D01*
X004191Y012797D01*
M02*
