G75*
%MOIN*%
%OFA0B0*%
%FSLAX24Y24*%
%IPPOS*%
%LPD*%
%AMOC8*
5,1,8,0,0,1.08239X$1,22.5*
%
%ADD10C,0.0000*%
%ADD11R,0.0866X0.0236*%
%ADD12R,0.1161X0.0661*%
%ADD13R,0.1161X0.3000*%
%ADD14R,0.0630X0.0710*%
%ADD15R,0.0710X0.0630*%
%ADD16R,0.0591X0.0787*%
%ADD17C,0.0740*%
%ADD18R,0.0591X0.0177*%
%ADD19C,0.0240*%
%ADD20C,0.0258*%
%ADD21C,0.0160*%
%ADD22C,0.0320*%
%ADD23C,0.0500*%
%ADD24C,0.0120*%
%ADD25R,0.0356X0.0356*%
D10*
X000180Y000317D02*
X000180Y014317D01*
X009180Y014317D01*
X009180Y000317D01*
X000180Y000317D01*
D11*
X004656Y010067D03*
X004656Y010567D03*
X004656Y011067D03*
X004656Y011567D03*
X006704Y011567D03*
X006704Y011067D03*
X006704Y010567D03*
X006704Y010067D03*
D12*
X006202Y005986D03*
X003261Y005986D03*
D13*
X003261Y003915D03*
X006202Y003915D03*
D14*
X006440Y007317D03*
X005320Y007317D03*
X003990Y007317D03*
X002870Y007317D03*
X003120Y012817D03*
X004240Y012817D03*
D15*
X002930Y011377D03*
X002930Y010257D03*
X002930Y009377D03*
X002930Y008257D03*
D16*
X005089Y012817D03*
X006271Y012817D03*
D17*
X007810Y012817D02*
X008550Y012817D01*
X008550Y011817D02*
X007810Y011817D01*
X007810Y010817D02*
X008550Y010817D01*
X008550Y009817D02*
X007810Y009817D01*
X007810Y008817D02*
X008550Y008817D01*
X008550Y005817D02*
X007810Y005817D01*
X007810Y004817D02*
X008550Y004817D01*
X008550Y003817D02*
X007810Y003817D01*
X007810Y002817D02*
X008550Y002817D01*
X008550Y001817D02*
X007810Y001817D01*
X001550Y001817D02*
X000810Y001817D01*
X000810Y002817D02*
X001550Y002817D01*
X001550Y003817D02*
X000810Y003817D01*
X000810Y004817D02*
X001550Y004817D01*
X001550Y005817D02*
X000810Y005817D01*
X000810Y008817D02*
X001550Y008817D01*
X001550Y009817D02*
X000810Y009817D01*
X000810Y010817D02*
X001550Y010817D01*
X001550Y011817D02*
X000810Y011817D01*
X000810Y012817D02*
X001550Y012817D01*
D18*
X004074Y009051D03*
X004074Y008795D03*
X004074Y008539D03*
X004074Y008283D03*
X005886Y008283D03*
X005886Y008539D03*
X005886Y008795D03*
X005886Y009051D03*
D19*
X005930Y009817D02*
X006680Y009067D01*
X006954Y009817D02*
X006704Y010067D01*
X006704Y010567D02*
X007030Y010567D01*
X007080Y010617D01*
X007130Y011067D02*
X006704Y011067D01*
X006704Y011567D02*
X005930Y011567D01*
X005930Y011067D01*
X005930Y009817D01*
X005430Y010567D02*
X004656Y010567D01*
X004656Y010067D02*
X004680Y010067D01*
X004680Y009717D01*
X004656Y011067D02*
X003680Y011067D01*
X003240Y011067D01*
X002930Y011377D01*
X004156Y012067D02*
X004656Y011567D01*
X004005Y008213D02*
X004005Y007332D01*
X005320Y007317D02*
X005886Y007882D01*
D20*
X006680Y009067D03*
X007080Y010617D03*
X005930Y011067D03*
X005430Y010567D03*
X004680Y009717D03*
X002430Y012817D03*
X002180Y011567D03*
D21*
X003680Y011067D02*
X003680Y009345D01*
X003974Y009051D01*
X004074Y009051D01*
X004074Y008283D02*
X004005Y008213D01*
X004005Y007332D02*
X003990Y007317D01*
X003974Y007332D01*
X005080Y009317D02*
X005619Y009317D01*
X005886Y009051D01*
X005886Y008539D02*
X006402Y008539D01*
X006680Y008817D01*
X006680Y009067D01*
X005886Y008283D02*
X005886Y007882D01*
X005080Y009317D02*
X004680Y009717D01*
X004656Y010067D02*
X004580Y010067D01*
D22*
X004156Y012067D02*
X005521Y012067D01*
X006271Y012817D01*
X005089Y012817D02*
X004240Y012817D01*
X004156Y012067D02*
X001930Y012067D01*
X001680Y011817D01*
X001180Y011817D01*
X002180Y011567D02*
X002370Y011377D01*
X002930Y011377D01*
X002930Y010257D02*
X002930Y009377D01*
X002370Y008817D02*
X001180Y008817D01*
X002370Y008817D02*
X002930Y008257D01*
X003120Y012817D02*
X002430Y012817D01*
X006954Y009817D02*
X008180Y009817D01*
X007130Y011067D02*
X007880Y011817D01*
X008180Y011817D01*
D23*
X006440Y007317D02*
X006440Y006224D01*
X006202Y005986D01*
X003261Y005986D02*
X002870Y006377D01*
X002870Y007317D01*
D24*
X002180Y006817D02*
X000340Y006817D01*
X000340Y000477D01*
X004180Y000477D01*
X004180Y005317D01*
X002180Y005317D01*
X002180Y006817D01*
X002180Y006716D02*
X000340Y006716D01*
X000340Y006597D02*
X002180Y006597D01*
X002180Y006479D02*
X000340Y006479D01*
X000340Y006360D02*
X002180Y006360D01*
X002180Y006242D02*
X000340Y006242D01*
X000340Y006123D02*
X002180Y006123D01*
X002180Y006005D02*
X000340Y006005D01*
X000340Y005886D02*
X002180Y005886D01*
X002180Y005768D02*
X000340Y005768D01*
X000340Y005649D02*
X002180Y005649D01*
X002180Y005531D02*
X000340Y005531D01*
X000340Y005412D02*
X002180Y005412D01*
X000340Y005294D02*
X004180Y005294D01*
X004180Y005175D02*
X000340Y005175D01*
X000340Y005057D02*
X004180Y005057D01*
X004180Y004938D02*
X000340Y004938D01*
X000340Y004820D02*
X004180Y004820D01*
X004180Y004701D02*
X000340Y004701D01*
X000340Y004583D02*
X004180Y004583D01*
X004180Y004464D02*
X000340Y004464D01*
X000340Y004346D02*
X004180Y004346D01*
X004180Y004227D02*
X000340Y004227D01*
X000340Y004109D02*
X004180Y004109D01*
X004180Y003990D02*
X000340Y003990D01*
X000340Y003872D02*
X004180Y003872D01*
X004180Y003753D02*
X000340Y003753D01*
X000340Y003635D02*
X004180Y003635D01*
X004180Y003516D02*
X000340Y003516D01*
X000340Y003398D02*
X004180Y003398D01*
X004180Y003279D02*
X000340Y003279D01*
X000340Y003161D02*
X004180Y003161D01*
X004180Y003042D02*
X000340Y003042D01*
X000340Y002924D02*
X004180Y002924D01*
X004180Y002805D02*
X000340Y002805D01*
X000340Y002687D02*
X004180Y002687D01*
X004180Y002568D02*
X000340Y002568D01*
X000340Y002450D02*
X004180Y002450D01*
X004180Y002331D02*
X000340Y002331D01*
X000340Y002213D02*
X004180Y002213D01*
X004180Y002094D02*
X000340Y002094D01*
X000340Y001976D02*
X004180Y001976D01*
X004180Y001857D02*
X000340Y001857D01*
X000340Y001739D02*
X004180Y001739D01*
X004180Y001620D02*
X000340Y001620D01*
X000340Y001502D02*
X004180Y001502D01*
X004180Y001383D02*
X000340Y001383D01*
X000340Y001265D02*
X004180Y001265D01*
X004180Y001146D02*
X000340Y001146D01*
X000340Y001028D02*
X004180Y001028D01*
X004180Y000909D02*
X000340Y000909D01*
X000340Y000791D02*
X004180Y000791D01*
X004180Y000672D02*
X000340Y000672D01*
X000340Y000554D02*
X004180Y000554D01*
X005180Y000554D02*
X009020Y000554D01*
X009020Y000477D02*
X005180Y000477D01*
X005180Y005317D01*
X007180Y005317D01*
X007180Y006817D01*
X009020Y006817D01*
X009020Y000477D01*
X009020Y000672D02*
X005180Y000672D01*
X005180Y000791D02*
X009020Y000791D01*
X009020Y000909D02*
X005180Y000909D01*
X005180Y001028D02*
X009020Y001028D01*
X009020Y001146D02*
X005180Y001146D01*
X005180Y001265D02*
X009020Y001265D01*
X009020Y001383D02*
X005180Y001383D01*
X005180Y001502D02*
X009020Y001502D01*
X009020Y001620D02*
X005180Y001620D01*
X005180Y001739D02*
X009020Y001739D01*
X009020Y001857D02*
X005180Y001857D01*
X005180Y001976D02*
X009020Y001976D01*
X009020Y002094D02*
X005180Y002094D01*
X005180Y002213D02*
X009020Y002213D01*
X009020Y002331D02*
X005180Y002331D01*
X005180Y002450D02*
X009020Y002450D01*
X009020Y002568D02*
X005180Y002568D01*
X005180Y002687D02*
X009020Y002687D01*
X009020Y002805D02*
X005180Y002805D01*
X005180Y002924D02*
X009020Y002924D01*
X009020Y003042D02*
X005180Y003042D01*
X005180Y003161D02*
X009020Y003161D01*
X009020Y003279D02*
X005180Y003279D01*
X005180Y003398D02*
X009020Y003398D01*
X009020Y003516D02*
X005180Y003516D01*
X005180Y003635D02*
X009020Y003635D01*
X009020Y003753D02*
X005180Y003753D01*
X005180Y003872D02*
X009020Y003872D01*
X009020Y003990D02*
X005180Y003990D01*
X005180Y004109D02*
X009020Y004109D01*
X009020Y004227D02*
X005180Y004227D01*
X005180Y004346D02*
X009020Y004346D01*
X009020Y004464D02*
X005180Y004464D01*
X005180Y004583D02*
X009020Y004583D01*
X009020Y004701D02*
X005180Y004701D01*
X005180Y004820D02*
X009020Y004820D01*
X009020Y004938D02*
X005180Y004938D01*
X005180Y005057D02*
X009020Y005057D01*
X009020Y005175D02*
X005180Y005175D01*
X005180Y005294D02*
X009020Y005294D01*
X009020Y005412D02*
X007180Y005412D01*
X007180Y005531D02*
X009020Y005531D01*
X009020Y005649D02*
X007180Y005649D01*
X007180Y005768D02*
X009020Y005768D01*
X009020Y005886D02*
X007180Y005886D01*
X007180Y006005D02*
X009020Y006005D01*
X009020Y006123D02*
X007180Y006123D01*
X007180Y006242D02*
X009020Y006242D01*
X009020Y006360D02*
X007180Y006360D01*
X007180Y006479D02*
X009020Y006479D01*
X009020Y006597D02*
X007180Y006597D01*
X007180Y006716D02*
X009020Y006716D01*
D25*
X007430Y006567D03*
X007180Y004817D03*
X007180Y003817D03*
X007180Y002817D03*
X007180Y001817D03*
X007180Y000817D03*
X008180Y000817D03*
X002180Y000817D03*
X002180Y001817D03*
X002180Y002817D03*
X002180Y003817D03*
X002180Y004817D03*
X001930Y006567D03*
X001180Y000817D03*
M02*
