%
M48
M72
T01C0.0138
T02C0.0236
T03C0.0440
%
T01
X6680Y9067
X5930Y11067
X2430Y12817
X4680Y9717
X7080Y10617
X2180Y11567
X5430Y10567
T02
X2180Y817
X1930Y6567
X1180Y817
X2180Y4817
X2180Y3817
X2180Y2817
X2180Y1817
X8180Y817
X7430Y6567
X7180Y817
X7180Y4817
X7180Y3817
X7180Y2817
X7180Y1817
T03
X1180Y1817
X1180Y2817
X1180Y3817
X1180Y4817
X1180Y5817
X8180Y1817
X8180Y2817
X8180Y3817
X8180Y4817
X8180Y5817
X1180Y12817
X1180Y11817
X1180Y10817
X1180Y9817
X1180Y8817
X8180Y12817
X8180Y11817
X8180Y10817
X8180Y9817
X8180Y8817
M30
