%
M48
M72
T01C0.0236
T02C0.0440
%
T01
X8160Y9410
X7410Y11410
X6160Y9410
X3910Y13160
X3660Y5160
X3660Y4160
X3660Y3160
X3660Y2160
X5160Y1660
X2910Y6910
X1910Y1410
X8660Y5160
X8660Y4160
X8660Y3160
X8660Y2160
X7160Y1660
X9410Y6910
X10660Y1410
X8910Y10910
X3660Y11910
X6910Y10910
T02
X1160Y2160
X1160Y3160
X1160Y4160
X1160Y5160
X1160Y6160
X11160Y2160
X11160Y3160
X11160Y4160
X11160Y5160
X11160Y6160
X2160Y13160
X2160Y12160
X2160Y11160
X2160Y10160
X2160Y9160
X10160Y13160
X10160Y12160
X10160Y11160
X10160Y10160
X10160Y9160
M30
