G75*
%MOIN*%
%OFA0B0*%
%FSLAX24Y24*%
%IPPOS*%
%LPD*%
%AMOC8*
5,1,8,0,0,1.08239X$1,22.5*
%
%ADD10C,0.0000*%
%ADD11C,0.0050*%
%ADD12C,0.0030*%
%ADD13C,0.0080*%
%ADD14C,0.0170*%
D10*
X000160Y000660D02*
X000160Y007160D01*
X001160Y008160D01*
X001160Y014660D01*
X011160Y014660D01*
X011160Y008160D01*
X012160Y007160D01*
X012160Y000660D01*
X000160Y000660D01*
D11*
X004012Y002609D02*
X008410Y002609D01*
X008410Y006760D01*
X004012Y006760D01*
X004012Y002609D01*
X005560Y002610D02*
X006860Y002610D01*
X006860Y006760D01*
X005560Y006760D01*
X005560Y002610D01*
X005560Y002649D02*
X006860Y002649D01*
X006860Y002697D02*
X005560Y002697D01*
X005560Y002746D02*
X006860Y002746D01*
X006860Y002794D02*
X005560Y002794D01*
X005560Y002843D02*
X006860Y002843D01*
X006860Y002891D02*
X005560Y002891D01*
X005560Y002940D02*
X006860Y002940D01*
X006860Y002988D02*
X005560Y002988D01*
X005560Y003037D02*
X006860Y003037D01*
X006860Y003085D02*
X005560Y003085D01*
X005560Y003134D02*
X006860Y003134D01*
X006860Y003182D02*
X005560Y003182D01*
X005560Y003231D02*
X006860Y003231D01*
X006860Y003279D02*
X005560Y003279D01*
X005560Y003328D02*
X006860Y003328D01*
X006860Y003376D02*
X005560Y003376D01*
X005560Y003425D02*
X006860Y003425D01*
X006860Y003473D02*
X005560Y003473D01*
X005560Y003522D02*
X006860Y003522D01*
X006860Y003570D02*
X005560Y003570D01*
X005560Y003619D02*
X006860Y003619D01*
X006860Y003667D02*
X005560Y003667D01*
X005560Y003716D02*
X006860Y003716D01*
X006860Y003764D02*
X005560Y003764D01*
X005560Y003813D02*
X006860Y003813D01*
X006860Y003861D02*
X005560Y003861D01*
X005560Y003910D02*
X006860Y003910D01*
X006860Y003958D02*
X005560Y003958D01*
X005560Y004007D02*
X006860Y004007D01*
X006860Y004055D02*
X005560Y004055D01*
X005560Y004104D02*
X006860Y004104D01*
X006860Y004152D02*
X005560Y004152D01*
X005560Y004201D02*
X006860Y004201D01*
X006860Y004249D02*
X005560Y004249D01*
X005560Y004298D02*
X006860Y004298D01*
X006860Y004346D02*
X005560Y004346D01*
X005560Y004395D02*
X006860Y004395D01*
X006860Y004443D02*
X005560Y004443D01*
X005560Y004492D02*
X006860Y004492D01*
X006860Y004540D02*
X005560Y004540D01*
X005560Y004589D02*
X006860Y004589D01*
X006860Y004637D02*
X005560Y004637D01*
X005560Y004686D02*
X006860Y004686D01*
X006860Y004734D02*
X005560Y004734D01*
X005560Y004783D02*
X006860Y004783D01*
X006860Y004831D02*
X005560Y004831D01*
X005560Y004880D02*
X006860Y004880D01*
X006860Y004928D02*
X005560Y004928D01*
X005560Y004977D02*
X006860Y004977D01*
X006860Y005025D02*
X005560Y005025D01*
X005560Y005074D02*
X006860Y005074D01*
X006860Y005122D02*
X005560Y005122D01*
X005560Y005171D02*
X006860Y005171D01*
X006860Y005219D02*
X005560Y005219D01*
X005560Y005268D02*
X006860Y005268D01*
X006860Y005316D02*
X005560Y005316D01*
X005560Y005365D02*
X006860Y005365D01*
X006860Y005413D02*
X005560Y005413D01*
X005560Y005462D02*
X006860Y005462D01*
X006860Y005510D02*
X005560Y005510D01*
X005560Y005559D02*
X006860Y005559D01*
X006860Y005607D02*
X005560Y005607D01*
X005560Y005656D02*
X006860Y005656D01*
X006860Y005704D02*
X005560Y005704D01*
X005560Y005753D02*
X006860Y005753D01*
X006860Y005801D02*
X005560Y005801D01*
X005560Y005850D02*
X006860Y005850D01*
X006860Y005898D02*
X005560Y005898D01*
X005560Y005947D02*
X006860Y005947D01*
X006860Y005995D02*
X005560Y005995D01*
X005560Y006044D02*
X006860Y006044D01*
X006860Y006092D02*
X005560Y006092D01*
X005560Y006141D02*
X006860Y006141D01*
X006860Y006189D02*
X005560Y006189D01*
X005560Y006238D02*
X006860Y006238D01*
X006860Y006286D02*
X005560Y006286D01*
X005560Y006335D02*
X006860Y006335D01*
X006860Y006383D02*
X005560Y006383D01*
X005560Y006432D02*
X006860Y006432D01*
X006860Y006480D02*
X005560Y006480D01*
X005560Y006529D02*
X006860Y006529D01*
X006860Y006577D02*
X005560Y006577D01*
X005560Y006626D02*
X006860Y006626D01*
X006860Y006674D02*
X005560Y006674D01*
X005560Y006723D02*
X006860Y006723D01*
X007260Y007360D02*
X007260Y007960D01*
X007460Y007960D01*
X007460Y007360D01*
X007260Y007360D01*
X007260Y007402D02*
X007460Y007402D01*
X007460Y007450D02*
X007260Y007450D01*
X007260Y007499D02*
X007460Y007499D01*
X007460Y007547D02*
X007260Y007547D01*
X007260Y007596D02*
X007460Y007596D01*
X007460Y007644D02*
X007260Y007644D01*
X007260Y007693D02*
X007460Y007693D01*
X007460Y007741D02*
X007260Y007741D01*
X007260Y007790D02*
X007460Y007790D01*
X007460Y007838D02*
X007260Y007838D01*
X007260Y007887D02*
X007460Y007887D01*
X007460Y007935D02*
X007260Y007935D01*
X006800Y008520D02*
X006416Y008520D01*
X006414Y008551D01*
X006409Y008581D01*
X006399Y008611D01*
X006387Y008639D01*
X006371Y008665D01*
X006352Y008690D01*
X006330Y008712D01*
X006305Y008731D01*
X006279Y008747D01*
X006251Y008759D01*
X006221Y008769D01*
X006191Y008774D01*
X006160Y008776D01*
X006129Y008774D01*
X006099Y008769D01*
X006069Y008759D01*
X006041Y008747D01*
X006015Y008731D01*
X005990Y008712D01*
X005968Y008690D01*
X005949Y008665D01*
X005933Y008639D01*
X005921Y008611D01*
X005911Y008581D01*
X005906Y008551D01*
X005904Y008520D01*
X005520Y008520D01*
X005520Y008648D01*
X005010Y007960D02*
X004810Y007960D01*
X004810Y007360D01*
X005010Y007360D01*
X005010Y007960D01*
X005010Y007935D02*
X004810Y007935D01*
X004810Y007887D02*
X005010Y007887D01*
X005010Y007838D02*
X004810Y007838D01*
X004810Y007790D02*
X005010Y007790D01*
X005010Y007741D02*
X004810Y007741D01*
X004810Y007693D02*
X005010Y007693D01*
X005010Y007644D02*
X004810Y007644D01*
X004810Y007596D02*
X005010Y007596D01*
X005010Y007547D02*
X004810Y007547D01*
X004810Y007499D02*
X005010Y007499D01*
X005010Y007450D02*
X004810Y007450D01*
X004810Y007402D02*
X005010Y007402D01*
X006160Y006760D02*
X006160Y002610D01*
X006800Y008520D02*
X006800Y008648D01*
X006800Y009672D02*
X006800Y009800D01*
X005520Y009800D01*
X005520Y009672D01*
X004710Y009260D02*
X004710Y009060D01*
X004110Y009060D01*
X004110Y009260D01*
X004710Y009260D01*
X004710Y009245D02*
X004110Y009245D01*
X004110Y009196D02*
X004710Y009196D01*
X004710Y009148D02*
X004110Y009148D01*
X004110Y009099D02*
X004710Y009099D01*
X004710Y011060D02*
X004110Y011060D01*
X004110Y011260D01*
X004710Y011260D01*
X004710Y011060D01*
X004710Y011088D02*
X004110Y011088D01*
X004110Y011136D02*
X004710Y011136D01*
X004710Y011185D02*
X004110Y011185D01*
X004110Y011233D02*
X004710Y011233D01*
X005060Y012860D02*
X005060Y013460D01*
X005260Y013460D01*
X005260Y012860D01*
X005060Y012860D01*
X005060Y012882D02*
X005260Y012882D01*
X005260Y012931D02*
X005060Y012931D01*
X005060Y012979D02*
X005260Y012979D01*
X005260Y013028D02*
X005060Y013028D01*
X005060Y013076D02*
X005260Y013076D01*
X005260Y013125D02*
X005060Y013125D01*
X005060Y013173D02*
X005260Y013173D01*
X005260Y013222D02*
X005060Y013222D01*
X005060Y013270D02*
X005260Y013270D01*
X005260Y013319D02*
X005060Y013319D01*
X005060Y013367D02*
X005260Y013367D01*
X005260Y013416D02*
X005060Y013416D01*
X003876Y014005D02*
X003576Y014005D01*
X003726Y014005D02*
X003726Y014455D01*
X003576Y014305D01*
X003416Y013930D02*
X003115Y013930D01*
X002955Y014005D02*
X002655Y014005D01*
X002655Y014455D01*
X002495Y014380D02*
X002495Y014230D01*
X002420Y014155D01*
X002195Y014155D01*
X002195Y014005D02*
X002195Y014455D01*
X002420Y014455D01*
X002495Y014380D01*
X002345Y014155D02*
X002495Y014005D01*
X002034Y014455D02*
X001734Y014455D01*
X001884Y014455D02*
X001884Y014005D01*
X001574Y014080D02*
X001499Y014005D01*
X001349Y014005D01*
X001274Y014080D01*
X001274Y014380D01*
X001349Y014455D01*
X001499Y014455D01*
X001574Y014380D01*
X006660Y012160D02*
X006660Y010160D01*
X007660Y010160D01*
X007660Y012160D01*
X007410Y012160D01*
X007408Y012130D01*
X007403Y012100D01*
X007394Y012071D01*
X007381Y012044D01*
X007366Y012018D01*
X007347Y011994D01*
X007326Y011973D01*
X007302Y011954D01*
X007276Y011939D01*
X007249Y011926D01*
X007220Y011917D01*
X007190Y011912D01*
X007160Y011910D01*
X007130Y011912D01*
X007100Y011917D01*
X007071Y011926D01*
X007044Y011939D01*
X007018Y011954D01*
X006994Y011973D01*
X006973Y011994D01*
X006954Y012018D01*
X006939Y012044D01*
X006926Y012071D01*
X006917Y012100D01*
X006912Y012130D01*
X006910Y012160D01*
X006660Y012160D01*
X007060Y012860D02*
X007060Y013460D01*
X007260Y013460D01*
X007260Y012860D01*
X007060Y012860D01*
X007060Y012882D02*
X007260Y012882D01*
X007260Y012931D02*
X007060Y012931D01*
X007060Y012979D02*
X007260Y012979D01*
X007260Y013028D02*
X007060Y013028D01*
X007060Y013076D02*
X007260Y013076D01*
X007260Y013125D02*
X007060Y013125D01*
X007060Y013173D02*
X007260Y013173D01*
X007260Y013222D02*
X007060Y013222D01*
X007060Y013270D02*
X007260Y013270D01*
X007260Y013319D02*
X007060Y013319D01*
X007060Y013367D02*
X007260Y013367D01*
X007260Y013416D02*
X007060Y013416D01*
X008274Y014080D02*
X008349Y014005D01*
X008499Y014005D01*
X008574Y014080D01*
X008274Y014080D02*
X008274Y014380D01*
X008349Y014455D01*
X008499Y014455D01*
X008574Y014380D01*
X008734Y014455D02*
X009034Y014455D01*
X008884Y014455D02*
X008884Y014005D01*
X009195Y014005D02*
X009195Y014455D01*
X009420Y014455D01*
X009495Y014380D01*
X009495Y014230D01*
X009420Y014155D01*
X009195Y014155D01*
X009345Y014155D02*
X009495Y014005D01*
X009655Y014005D02*
X009955Y014005D01*
X010115Y013930D02*
X010416Y013930D01*
X010576Y014005D02*
X010876Y014305D01*
X010876Y014380D01*
X010801Y014455D01*
X010651Y014455D01*
X010576Y014380D01*
X010576Y014005D02*
X010876Y014005D01*
X009655Y014005D02*
X009655Y014455D01*
D12*
X008666Y012505D02*
X008666Y012215D01*
X008570Y012215D02*
X008763Y012215D01*
X008570Y012408D02*
X008666Y012505D01*
X008468Y012408D02*
X008468Y012215D01*
X008468Y012360D02*
X008275Y012360D01*
X008275Y012408D02*
X008372Y012505D01*
X008468Y012408D01*
X008275Y012408D02*
X008275Y012215D01*
X008174Y012360D02*
X008125Y012312D01*
X007980Y012312D01*
X007980Y012215D02*
X007980Y012505D01*
X008125Y012505D01*
X008174Y012457D01*
X008174Y012360D01*
X007879Y012263D02*
X007879Y012457D01*
X007831Y012505D01*
X007734Y012505D01*
X007686Y012457D01*
X007686Y012263D01*
X007734Y012215D01*
X007831Y012215D01*
X007879Y012263D01*
X007419Y012560D02*
X007322Y012560D01*
X007221Y012560D02*
X007221Y012415D01*
X007322Y012415D02*
X007322Y012705D01*
X007516Y012705D01*
X007221Y012560D02*
X007173Y012608D01*
X007028Y012608D01*
X007028Y012415D01*
X006927Y012415D02*
X006733Y012415D01*
X006830Y012415D02*
X006830Y012705D01*
X006733Y012608D01*
X006929Y013615D02*
X007025Y013615D01*
X007074Y013663D01*
X007175Y013615D02*
X007368Y013615D01*
X007272Y013615D02*
X007272Y013905D01*
X007175Y013808D01*
X007074Y013857D02*
X007025Y013905D01*
X006929Y013905D01*
X006880Y013857D01*
X006880Y013663D01*
X006929Y013615D01*
X005639Y012608D02*
X005494Y012512D01*
X005639Y012415D01*
X005494Y012415D02*
X005494Y012705D01*
X005393Y012657D02*
X005200Y012463D01*
X005248Y012415D01*
X005345Y012415D01*
X005393Y012463D01*
X005393Y012657D01*
X005345Y012705D01*
X005248Y012705D01*
X005200Y012657D01*
X005200Y012463D01*
X005098Y012463D02*
X005050Y012415D01*
X004953Y012415D01*
X004905Y012463D01*
X005098Y012657D01*
X005098Y012463D01*
X004905Y012463D02*
X004905Y012657D01*
X004953Y012705D01*
X005050Y012705D01*
X005098Y012657D01*
X004804Y012415D02*
X004610Y012415D01*
X004707Y012415D02*
X004707Y012705D01*
X004610Y012608D01*
X004890Y011957D02*
X005180Y011715D01*
X005180Y011614D02*
X005180Y011421D01*
X005180Y011517D02*
X004890Y011517D01*
X004987Y011421D01*
X004938Y011715D02*
X004890Y011715D01*
X004890Y011764D01*
X004938Y011764D01*
X004938Y011715D01*
X005132Y011909D02*
X005132Y011957D01*
X005180Y011957D01*
X005180Y011909D01*
X005132Y011909D01*
X005180Y011025D02*
X005083Y010880D01*
X004987Y011025D01*
X004890Y010880D02*
X005180Y010880D01*
X005132Y010779D02*
X005180Y010731D01*
X005180Y010634D01*
X005132Y010586D01*
X004938Y010779D01*
X005132Y010779D01*
X005132Y010586D02*
X004938Y010586D01*
X004890Y010634D01*
X004890Y010731D01*
X004938Y010779D01*
X005180Y010485D02*
X005180Y010291D01*
X005180Y010388D02*
X004890Y010388D01*
X004987Y010291D01*
X004890Y009957D02*
X005180Y009715D01*
X005180Y009614D02*
X005180Y009421D01*
X005180Y009517D02*
X004890Y009517D01*
X004987Y009421D01*
X004938Y009715D02*
X004890Y009715D01*
X004890Y009764D01*
X004938Y009764D01*
X004938Y009715D01*
X005132Y009909D02*
X005132Y009957D01*
X005180Y009957D01*
X005180Y009909D01*
X005132Y009909D01*
X005180Y009025D02*
X005083Y008880D01*
X004987Y009025D01*
X004890Y008880D02*
X005180Y008880D01*
X005132Y008779D02*
X005180Y008731D01*
X005180Y008634D01*
X005132Y008586D01*
X004938Y008779D01*
X005132Y008779D01*
X004938Y008779D02*
X004890Y008731D01*
X004890Y008634D01*
X004938Y008586D01*
X005132Y008586D01*
X005180Y008485D02*
X005180Y008291D01*
X005180Y008388D02*
X004890Y008388D01*
X004987Y008291D01*
X005120Y007180D02*
X005120Y006890D01*
X005023Y006890D02*
X005217Y006890D01*
X005318Y006890D02*
X005560Y007180D01*
X005366Y007180D02*
X005366Y007132D01*
X005318Y007132D01*
X005318Y007180D01*
X005366Y007180D01*
X005120Y007180D02*
X005023Y007083D01*
X004628Y007083D02*
X004483Y006987D01*
X004628Y006890D01*
X004483Y006890D02*
X004483Y007180D01*
X004285Y007180D02*
X004285Y006890D01*
X004188Y006890D02*
X004382Y006890D01*
X004188Y007083D02*
X004285Y007180D01*
X003868Y007515D02*
X003675Y007515D01*
X003772Y007515D02*
X003772Y007805D01*
X003675Y007708D01*
X003574Y007660D02*
X003525Y007612D01*
X003380Y007612D01*
X003380Y007515D02*
X003380Y007805D01*
X003525Y007805D01*
X003574Y007757D01*
X003574Y007660D01*
X003477Y007612D02*
X003574Y007515D01*
X003690Y008880D02*
X003690Y009025D01*
X003738Y009074D01*
X003835Y009074D01*
X003883Y009025D01*
X003883Y008880D01*
X003980Y008880D02*
X003690Y008880D01*
X003883Y008977D02*
X003980Y009074D01*
X003932Y009175D02*
X003980Y009223D01*
X003980Y009320D01*
X003932Y009368D01*
X003883Y009368D01*
X003835Y009320D01*
X003835Y009175D01*
X003932Y009175D01*
X003835Y009175D02*
X003738Y009272D01*
X003690Y009368D01*
X003615Y010880D02*
X003615Y011025D01*
X003663Y011074D01*
X003760Y011074D01*
X003808Y011025D01*
X003808Y010880D01*
X003905Y010880D02*
X003615Y010880D01*
X003808Y010977D02*
X003905Y011074D01*
X003857Y011175D02*
X003905Y011223D01*
X003905Y011320D01*
X003857Y011368D01*
X003808Y011368D01*
X003760Y011320D01*
X003760Y011272D01*
X003760Y011320D02*
X003712Y011368D01*
X003663Y011368D01*
X003615Y011320D01*
X003615Y011223D01*
X003663Y011175D01*
X004880Y013615D02*
X004880Y013905D01*
X005025Y013905D01*
X005074Y013857D01*
X005074Y013760D01*
X005025Y013712D01*
X004880Y013712D01*
X004977Y013712D02*
X005074Y013615D01*
X005175Y013760D02*
X005368Y013760D01*
X005320Y013615D02*
X005320Y013905D01*
X005175Y013760D01*
X006894Y010055D02*
X007087Y009765D01*
X007087Y010055D01*
X007188Y010055D02*
X007188Y009765D01*
X007382Y009765D01*
X007483Y009813D02*
X007531Y009765D01*
X007628Y009765D01*
X007677Y009813D01*
X007677Y009910D01*
X007628Y009958D01*
X007580Y009958D01*
X007483Y009910D01*
X007483Y010055D01*
X007677Y010055D01*
X007778Y010055D02*
X007778Y009910D01*
X007874Y009958D01*
X007923Y009958D01*
X007971Y009910D01*
X007971Y009813D01*
X007923Y009765D01*
X007826Y009765D01*
X007778Y009813D01*
X007778Y010055D02*
X007971Y010055D01*
X008072Y010007D02*
X008121Y010055D01*
X008217Y010055D01*
X008266Y010007D01*
X008266Y009958D01*
X008217Y009910D01*
X008266Y009862D01*
X008266Y009813D01*
X008217Y009765D01*
X008121Y009765D01*
X008072Y009813D01*
X008169Y009910D02*
X008217Y009910D01*
X008367Y010007D02*
X008415Y010055D01*
X008512Y010055D01*
X008560Y010007D01*
X008560Y009958D01*
X008367Y009765D01*
X008560Y009765D01*
X008662Y009765D02*
X008807Y009765D01*
X008855Y009813D01*
X008855Y010007D01*
X008807Y010055D01*
X008662Y010055D01*
X008662Y009765D01*
X008258Y008430D02*
X008064Y008430D01*
X008064Y008285D01*
X008161Y008333D01*
X008209Y008333D01*
X008258Y008285D01*
X008258Y008188D01*
X008209Y008140D01*
X008113Y008140D01*
X008064Y008188D01*
X007963Y008188D02*
X007915Y008140D01*
X007818Y008140D01*
X007770Y008188D01*
X007963Y008382D01*
X007963Y008188D01*
X007770Y008188D02*
X007770Y008382D01*
X007818Y008430D01*
X007915Y008430D01*
X007963Y008382D01*
X007668Y008140D02*
X007475Y008140D01*
X007572Y008140D02*
X007572Y008430D01*
X007475Y008333D01*
X007374Y008237D02*
X007325Y008285D01*
X007180Y008285D01*
X007180Y008188D01*
X007229Y008140D01*
X007325Y008140D01*
X007374Y008188D01*
X007374Y008237D01*
X007277Y008382D02*
X007180Y008285D01*
X007277Y008382D02*
X007374Y008430D01*
X007425Y008565D02*
X007618Y008565D01*
X007522Y008565D02*
X007522Y008855D01*
X007425Y008758D01*
X007324Y008855D02*
X007324Y008613D01*
X007275Y008565D01*
X007179Y008565D01*
X007130Y008613D01*
X007130Y008855D01*
X007079Y008430D02*
X006886Y008430D01*
X006982Y008430D02*
X006982Y008140D01*
X006785Y008140D02*
X006591Y008140D01*
X006591Y008430D01*
X006735Y007205D02*
X006735Y006915D01*
X006638Y006915D02*
X006832Y006915D01*
X006933Y006915D02*
X006933Y007205D01*
X007078Y007108D02*
X006933Y007012D01*
X007078Y006915D01*
X007473Y006915D02*
X007667Y006915D01*
X007570Y006915D02*
X007570Y007205D01*
X007473Y007108D01*
X007768Y007157D02*
X007768Y007205D01*
X007816Y007205D01*
X007816Y007157D01*
X007768Y007157D01*
X007768Y006915D02*
X008010Y007205D01*
X008010Y006963D02*
X007961Y006963D01*
X007961Y006915D01*
X008010Y006915D01*
X008010Y006963D01*
X008330Y007515D02*
X008330Y007805D01*
X008475Y007805D01*
X008524Y007757D01*
X008524Y007660D01*
X008475Y007612D01*
X008330Y007612D01*
X008427Y007612D02*
X008524Y007515D01*
X008625Y007515D02*
X008818Y007708D01*
X008818Y007757D01*
X008770Y007805D01*
X008673Y007805D01*
X008625Y007757D01*
X008625Y007515D02*
X008818Y007515D01*
X007285Y009910D02*
X007188Y009910D01*
X007188Y010055D02*
X007382Y010055D01*
X006894Y010055D02*
X006894Y009765D01*
X006735Y007205D02*
X006638Y007108D01*
X005560Y006938D02*
X005560Y006890D01*
X005511Y006890D01*
X005511Y006938D01*
X005560Y006938D01*
X004945Y002430D02*
X004848Y002430D01*
X004800Y002382D01*
X004800Y002188D01*
X004993Y002382D01*
X004993Y002188D01*
X004945Y002140D01*
X004848Y002140D01*
X004800Y002188D01*
X004699Y002140D02*
X004602Y002237D01*
X004650Y002237D02*
X004505Y002237D01*
X004505Y002140D02*
X004505Y002430D01*
X004650Y002430D01*
X004699Y002382D01*
X004699Y002285D01*
X004650Y002237D01*
X004945Y002430D02*
X004993Y002382D01*
X007034Y002382D02*
X007034Y002188D01*
X007228Y002382D01*
X007228Y002188D01*
X007179Y002140D01*
X007083Y002140D01*
X007034Y002188D01*
X007034Y002382D02*
X007083Y002430D01*
X007179Y002430D01*
X007228Y002382D01*
X007329Y002188D02*
X007377Y002188D01*
X007377Y002140D01*
X007329Y002140D01*
X007329Y002188D01*
X007476Y002188D02*
X007670Y002382D01*
X007670Y002188D01*
X007621Y002140D01*
X007525Y002140D01*
X007476Y002188D01*
X007476Y002382D01*
X007525Y002430D01*
X007621Y002430D01*
X007670Y002382D01*
X007771Y002333D02*
X007868Y002430D01*
X007868Y002140D01*
X007964Y002140D02*
X007771Y002140D01*
D13*
X010910Y001660D02*
X011410Y001660D01*
X011410Y006660D02*
X010910Y006660D01*
X010410Y008660D02*
X009910Y008660D01*
X009910Y013660D02*
X010410Y013660D01*
X002410Y013660D02*
X001910Y013660D01*
X001910Y008660D02*
X002410Y008660D01*
X001410Y006660D02*
X000910Y006660D01*
X000910Y001660D02*
X001410Y001660D01*
D14*
X002651Y001826D02*
X002961Y001826D01*
X002806Y001826D02*
X002806Y000895D01*
X002651Y000895D02*
X002961Y000895D01*
X003326Y000895D02*
X003326Y001826D01*
X003947Y000895D01*
X003947Y001826D01*
X007476Y001671D02*
X007476Y001050D01*
X007631Y000895D01*
X007941Y000895D01*
X008096Y001050D01*
X008096Y001671D01*
X007941Y001826D01*
X007631Y001826D01*
X007476Y001671D01*
X008489Y001826D02*
X008489Y001050D01*
X008644Y000895D01*
X008954Y000895D01*
X009109Y001050D01*
X009109Y001826D01*
X009501Y001826D02*
X010122Y001826D01*
X009812Y001826D02*
X009812Y000895D01*
M02*
