G75*
%MOIN*%
%OFA0B0*%
%FSLAX24Y24*%
%IPPOS*%
%LPD*%
%AMOC8*
5,1,8,0,0,1.08239X$1,22.5*
%
%ADD10C,0.0000*%
%ADD11R,0.0394X0.0217*%
%ADD12R,0.0906X0.0276*%
%ADD13R,0.1201X0.0701*%
%ADD14R,0.1201X0.3040*%
%ADD15R,0.0670X0.0750*%
%ADD16R,0.0750X0.0670*%
%ADD17R,0.0631X0.0827*%
%ADD18C,0.0780*%
D10*
X000160Y000660D02*
X000160Y007160D01*
X001160Y008160D01*
X001160Y014660D01*
X011160Y014660D01*
X011160Y008160D01*
X012160Y007160D01*
X012160Y000660D01*
X000160Y000660D01*
D11*
X005485Y008776D03*
X005485Y009032D03*
X005485Y009288D03*
X005485Y009544D03*
X006835Y009544D03*
X006835Y009288D03*
X006835Y009032D03*
X006835Y008776D03*
D12*
X006136Y010410D03*
X006136Y010910D03*
X006136Y011410D03*
X006136Y011910D03*
X008184Y011910D03*
X008184Y011410D03*
X008184Y010910D03*
X008184Y010410D03*
D13*
X007682Y006329D03*
X004741Y006329D03*
D14*
X004741Y004258D03*
X007682Y004258D03*
D15*
X007920Y007660D03*
X006800Y007660D03*
X005470Y007660D03*
X004350Y007660D03*
X004600Y013160D03*
X005720Y013160D03*
D16*
X004410Y011720D03*
X004410Y010600D03*
X004410Y009720D03*
X004410Y008600D03*
D17*
X006569Y013160D03*
X007751Y013160D03*
D18*
X009790Y013160D02*
X010530Y013160D01*
X010530Y012160D02*
X009790Y012160D01*
X009790Y011160D02*
X010530Y011160D01*
X010530Y010160D02*
X009790Y010160D01*
X009790Y009160D02*
X010530Y009160D01*
X010790Y006160D02*
X011530Y006160D01*
X011530Y005160D02*
X010790Y005160D01*
X010790Y004160D02*
X011530Y004160D01*
X011530Y003160D02*
X010790Y003160D01*
X010790Y002160D02*
X011530Y002160D01*
X002530Y009160D02*
X001790Y009160D01*
X001790Y010160D02*
X002530Y010160D01*
X002530Y011160D02*
X001790Y011160D01*
X001790Y012160D02*
X002530Y012160D01*
X002530Y013160D02*
X001790Y013160D01*
X001530Y006160D02*
X000790Y006160D01*
X000790Y005160D02*
X001530Y005160D01*
X001530Y004160D02*
X000790Y004160D01*
X000790Y003160D02*
X001530Y003160D01*
X001530Y002160D02*
X000790Y002160D01*
M02*
